<svg width="16" height="16" viewBox="0 0 16 16" fill="none" xmlns="http://www.w3.org/2000/svg">
<g clip-path="url(#clip0_83_11665)">
<path fill-rule="evenodd" clip-rule="evenodd" d="M1.77778 0H14.2222C15.2 0 16 0.8 16 1.77778V14.2222C16 15.2 15.2 16 14.2222 16H1.77778C0.8 16 0 15.2 0 14.2222V1.77778C0 0.8 0.8 0 1.77778 0ZM13.144 5.13245C13.4012 4.86903 13.3962 4.44695 13.1328 4.18971C12.8694 3.93246 12.4473 3.93747 12.1901 4.20089L6.19168 10.3432L3.84242 7.56913C3.60447 7.2882 3.1838 7.25333 2.90283 7.49126C2.62186 7.7292 2.58698 8.14986 2.82493 8.43086L5.64784 11.7642C5.76919 11.9075 5.94533 11.9929 6.13297 11.9996C6.32062 12.0062 6.50236 11.9335 6.63355 11.7991L13.144 5.13245Z" fill="#41C8C3"/>
</g>
<defs>
<clipPath id="clip0_83_11665">
<rect width="16" height="16" fill="white"/>
</clipPath>
</defs>
</svg>
