<svg width="32" height="16" viewBox="0 0 32 16" fill="none" xmlns="http://www.w3.org/2000/svg">
<g clip-path="url(#clip0_83_11835)">
<path fill-rule="evenodd" clip-rule="evenodd" d="M8 1H24C27.866 1 31 4.13401 31 8C31 11.866 27.866 15 24 15H8C4.13401 15 1 11.866 1 8C1 4.13401 4.13401 1 8 1ZM0 8C0 3.58172 3.58172 0 8 0H24C28.4183 0 32 3.58172 32 8C32 12.4183 28.4183 16 24 16H8C3.58172 16 0 12.4183 0 8ZM8 13C10.7614 13 13 10.7614 13 8C13 5.23858 10.7614 3 8 3C5.23858 3 3 5.23858 3 8C3 10.7614 5.23858 13 8 13Z" fill="#41C8C3"/>
</g>
<defs>
<clipPath id="clip0_83_11835">
<rect width="32" height="16" fill="white"/>
</clipPath>
</defs>
</svg>
