<svg width="24" height="24" viewBox="0 0 24 24" fill="none" xmlns="http://www.w3.org/2000/svg">
<path fill-rule="evenodd" clip-rule="evenodd" d="M4.78812 8.89965C4.78812 5.08908 7.97432 2 11.9047 2C15.835 2 19.0213 5.08908 19.0213 8.89965C19.0213 10.0204 18.7456 11.0788 18.2565 12.0144L21.8161 16.9431C22.024 17.231 22.0581 17.6041 21.9058 17.9228C21.7536 18.2415 21.4378 18.4576 21.0771 18.4901L18.3997 18.7302L16.8744 21.3808C16.7039 21.6772 16.3881 21.8677 16.0384 21.885C15.6887 21.9022 15.3546 21.744 15.1537 21.4661L12.041 17.1561L8.8462 21.5797C8.64541 21.8577 8.31121 22.016 7.96159 21.9987C7.61198 21.9815 7.29613 21.791 7.12558 21.4946L5.60027 18.8438L2.92299 18.6036C2.56223 18.5713 2.24649 18.3552 2.09418 18.0366C1.94189 17.7178 1.97606 17.3446 2.18387 17.0569L5.67026 12.2295C5.10807 11.2422 4.78812 10.1072 4.78812 8.89965ZM13.4288 15.6406L15.889 19.0471L16.885 17.3164C17.0482 17.0325 17.3453 16.845 17.6791 16.815L19.1462 16.6835L17.002 13.7144C16.0477 14.6639 14.8136 15.3477 13.4288 15.6406ZM6.9681 13.8694C7.95484 14.791 9.21536 15.4389 10.6197 15.6871L8.11098 19.1608L7.115 17.43C6.9517 17.1462 6.65462 16.9587 6.32084 16.9287L4.85366 16.7971L6.9681 13.8694ZM11.9047 3.97133C9.09728 3.97133 6.82143 6.17781 6.82143 8.89965C6.82143 11.6215 9.09728 13.828 11.9047 13.828C14.7121 13.828 16.9879 11.6215 16.9879 8.89965C16.9879 6.17781 14.7121 3.97133 11.9047 3.97133Z" fill="#4373C7"/>
</svg>
