<svg width="24" height="24" viewBox="0 0 24 24" fill="none" xmlns="http://www.w3.org/2000/svg">
<path fill-rule="evenodd" clip-rule="evenodd" d="M8.2408 6.00821C8.35031 6.00275 8.46054 5.99999 8.5714 5.99999H12.4285C15.4288 5.99999 17.9474 8.02896 18.7401 10.7781C19.4858 10.417 20 9.65317 20 8.76922V7.76469C20 5.6855 18.3145 4 16.2352 4H11.2353C9.8828 4 8.72416 4.82987 8.2408 6.00821ZM18.9971 12.819C18.8981 16.2018 16.2484 18.9743 12.8948 19.1931L10.3079 21.4785C8.97197 22.6587 6.87498 21.7055 6.87498 19.9181V19.0903C4.09532 18.5355 2 16.0712 2 13.115V12.6035C2 9.8539 3.67239 7.49674 6.05076 6.50324C6.40682 3.95844 8.59233 2 11.2353 2H16.2352C19.419 2 22 4.58093 22 7.76469V8.76922C22 10.6788 20.7349 12.2928 18.9971 12.819ZM11.8682 17.4242L8.98734 19.9693C8.94362 20.0078 8.87498 19.9766 8.87498 19.9181V18.0138C8.87498 18.0003 8.87464 17.9868 8.87399 17.9735C8.86599 17.8083 8.80926 17.6563 8.71792 17.5312C8.57005 17.3288 8.33154 17.1974 8.06249 17.1974C5.81884 17.1974 4 15.3697 4 13.115V12.6035C4 10.0665 6.04669 8.00978 8.5714 8.00978H12.4285C14.9533 8.00978 17 10.0858 17 12.6229C17 15.1387 14.9704 17.1974 12.4668 17.1974C12.2465 17.1974 12.0337 17.2779 11.8682 17.4242Z" fill="#4373C7"/>
</svg>
