<svg width="24" height="24" viewBox="0 0 24 24" fill="none" xmlns="http://www.w3.org/2000/svg">
<path fill-rule="evenodd" clip-rule="evenodd" d="M2 10V18.0001C2 20.2091 3.79086 22 6.00001 22H14C16.2092 22 18 20.2091 18 18.0001C20.2092 18.0001 22.0001 16.2091 22.0001 14V10.5V6C22.0001 3.79086 20.2092 2 18 2H10C7.79086 2 6.00001 3.79086 6.00001 6C3.79086 6 2 7.79086 2 10ZM8 6H14C16.2092 6 18 7.79086 18 10V16C19.1047 16 20 15.1046 20 14V10.5V6C20 4.89543 19.1047 3.99999 18 3.99999H10C8.89544 3.99999 8 4.89543 8 6ZM6.00001 19.9999C4.89543 19.9999 4.00001 19.1046 4.00001 18.0001V10C4.00001 8.89543 4.89543 8 6.00001 8H14C15.1046 8 16 8.89543 16 10V18.0001C16 19.1046 15.1046 19.9999 14 19.9999H6.00001Z" fill="#4373C7"/>
</svg>
