<svg width="24" height="24" viewBox="0 0 24 24" fill="none" xmlns="http://www.w3.org/2000/svg">
<path fill-rule="evenodd" clip-rule="evenodd" d="M5.99998 22H18C19.6568 22 21 20.6569 21 19V12V8.37939C21 7.64611 20.7314 6.93821 20.245 6.38946L18.5969 4.53001L17.3143 3.04161C16.7444 2.38028 15.9146 2 15.0416 2H12H5.99996C4.34311 2 2.99997 3.34315 2.99997 5V19C2.99997 20.6569 4.34311 22 5.99998 22ZM16 4.58022L17.0909 5.84615L18.1136 7H16V4.58022ZM14 4V8C14 8.55229 14.4477 9 15 9H19V12V19C19 19.5523 18.5523 20 18 20H5.99998C5.44769 20 4.99996 19.5523 4.99996 19V5C4.99996 4.44771 5.44769 4 5.99996 4H12H14ZM7.99996 12C7.99996 11.4477 8.44769 11 8.99996 11H15C15.5523 11 16 11.4477 16 12C16 12.5523 15.5523 13 15 13H8.99996C8.44769 13 7.99996 12.5523 7.99996 12ZM8.99996 15C8.44769 15 7.99996 15.4477 7.99996 16C7.99996 16.5522 8.44769 17 8.99996 17H15C15.5523 17 16 16.5522 16 16C16 15.4477 15.5523 15 15 15H8.99996Z" fill="#4373C7"/>
</svg>
