<svg width="24" height="24" viewBox="0 0 24 24" fill="none" xmlns="http://www.w3.org/2000/svg">
<path fill-rule="evenodd" clip-rule="evenodd" d="M2 12C2 17.5228 6.47714 22 12 22C17.5228 22 22 17.5228 22 12C22 6.47715 17.5228 2 12 2C6.47714 2 2 6.47715 2 12ZM4 12C4 7.58172 7.58171 4 12 4C16.4183 4 20 7.58172 20 12C20 16.4182 16.4183 20 12 20C7.58171 20 4 16.4182 4 12ZM12.5476 13.066C12.4916 13.43 12.1976 13.752 11.7916 13.752H11.6796C11.2736 13.752 10.9796 13.444 10.9236 13.066L10.7836 12.114C10.7136 11.652 10.9796 11.33 11.4276 11.274C12.6456 11.12 13.2056 10.742 13.2056 10.056V10.028C13.2056 9.39799 12.7296 9.03399 11.9176 9.03399C11.3156 9.03399 10.7976 9.21599 10.2936 9.59399C10.1256 9.71999 9.90159 9.81799 9.66357 9.81799C9.13157 9.81799 8.68357 9.36999 8.68357 8.83799C8.68357 8.57199 8.79558 8.29199 9.04758 8.08199C9.78959 7.46599 10.7276 7.07399 11.9596 7.07399C13.9756 7.07399 15.3476 8.10999 15.3476 9.97199V9.99999C15.3476 11.778 14.1156 12.506 12.5896 12.814L12.5476 13.066ZM10.4616 15.894V15.866C10.4616 15.194 10.9796 14.676 11.6796 14.676C12.3796 14.676 12.8976 15.194 12.8976 15.866V15.894C12.8976 16.566 12.3796 17.084 11.6796 17.084C10.9796 17.084 10.4616 16.566 10.4616 15.894Z" fill="#4373C7"/>
</svg>
