<svg width="24" height="24" viewBox="0 0 24 24" fill="none" xmlns="http://www.w3.org/2000/svg">
<path fill-rule="evenodd" clip-rule="evenodd" d="M2 6C2 4.89542 2.8955 4 4.00007 4H20C21.1046 4 22 4.89542 22 6V18C22 19.1045 21.1046 20 20 20H4.00007C2.8955 20 2 19.1045 2 18V15.5134C2 15.505 2 15.4966 2 15.4882V6ZM4.00007 16.0146V18H6.00006H18H20V16V15.3662C19.9095 15.3141 19.8257 15.2466 19.7526 15.1644L16.3961 11.3883L11.1402 15.7682C10.835 16.0225 10.4082 16.0721 10.0528 15.8944L6.59136 14.1637L4.00007 16.0146ZM20 12.4323L17.2474 9.33562C16.8887 8.93212 16.2746 8.88615 15.8599 9.23176L10.3623 13.8131L6.94727 12.1055C6.61597 11.9399 6.22024 11.9709 5.91883 12.1862L4.00007 13.5568V7.99999V6H6.00006H18H20V7.99999V12.4323ZM8.50005 9.49999C8.50005 8.67156 9.17163 7.99999 10.0001 7.99999C10.8285 7.99999 11.5 8.67156 11.5 9.49999C11.5 10.3284 10.8285 11 10.0001 11C9.17163 11 8.50005 10.3284 8.50005 9.49999Z" fill="#4373C7"/>
</svg>
