<svg width="24" height="24" viewBox="0 0 24 24" fill="none" xmlns="http://www.w3.org/2000/svg">
<g clip-path="url(#clip0_58_10520)">
<path fill-rule="evenodd" clip-rule="evenodd" d="M4.92893 4.92898C1.02369 8.83422 1.02369 15.1659 4.92893 19.0711C8.83417 22.9764 15.1658 22.9764 19.0711 19.0711C22.9763 15.1659 22.9763 8.83422 19.0711 4.92898C15.1658 1.02374 8.83417 1.02374 4.92893 4.92898ZM6.34315 6.34319C9.46734 3.219 14.5327 3.219 17.6569 6.34319C20.781 9.46739 20.781 14.5327 17.6569 17.6569C14.5327 20.7811 9.46734 20.7811 6.34315 17.6569C3.21895 14.5327 3.21895 9.46739 6.34315 6.34319ZM11.2929 12.7072C10.9024 12.3166 10.9024 11.6835 11.2929 11.2929C11.6834 10.9024 12.3166 10.9024 12.7071 11.2929L16.5962 15.182C16.9867 15.5726 16.9867 16.2057 16.5962 16.5962C16.2057 16.9868 15.5725 16.9868 15.182 16.5962L11.2929 12.7072Z" fill="#4373C7"/>
<path d="M13 12C13 12.5523 12.5523 13 12 13C11.4477 13 11 12.5523 11 12L11 6.5C11 5.94772 11.4477 5.5 12 5.5C12.5523 5.5 13 5.94772 13 6.5L13 12Z" fill="#4373C7"/>
</g>
<defs>
<clipPath id="clip0_58_10520">
<rect width="24" height="24" fill="white"/>
</clipPath>
</defs>
</svg>
