<svg width="24" height="24" viewBox="0 0 24 24" fill="none" xmlns="http://www.w3.org/2000/svg">
<path fill-rule="evenodd" clip-rule="evenodd" d="M13.327 3.23899C13.327 2.55472 12.7723 2 12.0881 2C11.4038 2 10.8491 2.55472 10.8491 3.23899V10.673H3.23899C2.55472 10.673 2 11.2277 2 11.912C2 12.5962 2.55472 13.1509 3.23899 13.1509H10.8491V20.761C10.8491 21.4452 11.4038 22 12.0881 22C12.7723 22 13.327 21.4452 13.327 20.761V13.1509H20.761C21.4452 13.1509 22 12.5962 22 11.912C22 11.2277 21.4452 10.673 20.761 10.673H13.327V3.23899Z" fill="#92999E"/>
</svg>
