<svg width="24" height="24" viewBox="0 0 24 24" fill="none" xmlns="http://www.w3.org/2000/svg">
<path fill-rule="evenodd" clip-rule="evenodd" d="M8 2C7.44772 2 7.00001 2.44771 7.00001 3V4H6C4.34314 4 3 5.34315 3 7V9V19C3 20.6569 4.34314 22 6 22H18C19.6568 22 21 20.6569 21 19V9V7C21 5.34315 19.6568 4 18 4H17V3C17 2.44771 16.5523 2 16 2C15.4477 2 15 2.44771 15 3V4H9.00001V3C9.00001 2.44771 8.55228 2 8 2ZM16 6H8H6C5.44772 6 5 6.44771 5 7V8H19V7C19 6.44771 18.5523 6 18 6H16ZM5 19V10H19V19C19 19.5523 18.5523 20 18 20H6C5.44772 20 5 19.5523 5 19ZM7.00001 13C7.00001 12.4477 7.44772 12 8 12H10C10.5523 12 11 12.4477 11 13V15C11 15.5522 10.5523 16 10 16H8C7.44772 16 7.00001 15.5522 7.00001 15V13Z" fill="#92999E"/>
</svg>
