<svg width="24" height="24" viewBox="0 0 24 24" fill="none" xmlns="http://www.w3.org/2000/svg">
<g clip-path="url(#clip0_57_10406)">
<path d="M6.76782 19.0948L16.9053 8.95732L17.0213 17.9311C17.0305 18.6483 17.6266 19.2443 18.3437 19.2536C19.0609 19.2628 19.6327 18.6911 19.6234 17.9739L19.4668 5.85563C19.4576 5.13847 18.8708 4.55174 18.1537 4.54247L6.03517 4.36752C5.318 4.35825 4.74624 4.93002 4.7555 5.64719C4.76477 6.36435 5.3515 6.95109 6.06867 6.96035L15.0427 7.09468L4.90518 17.2322C4.40601 17.7313 4.41671 18.5588 4.92893 19.0711C5.44116 19.5833 6.26866 19.594 6.76782 19.0948Z" fill="#92999E"/>
</g>
<defs>
<clipPath id="clip0_57_10406">
<rect width="24" height="24" fill="white"/>
</clipPath>
</defs>
</svg>
