<svg width="24" height="24" viewBox="0 0 24 24" fill="none" xmlns="http://www.w3.org/2000/svg">
<path fill-rule="evenodd" clip-rule="evenodd" d="M4 6.66673C4 6.17581 4.39797 5.77783 4.88889 5.77783H19.1111C19.602 5.77783 20 6.17581 20 6.66673C20 7.15765 19.602 7.55562 19.1111 7.55562H4.88889C4.39797 7.55562 4 7.15765 4 6.66673ZM6.66667 12.0001C6.66667 11.5091 7.06464 11.1112 7.55556 11.1112H16.4444C16.9353 11.1112 17.3333 11.5091 17.3333 12.0001C17.3333 12.491 16.9353 12.889 16.4444 12.889H7.55556C7.06464 12.889 6.66667 12.491 6.66667 12.0001ZM10.2223 16.4445C9.7314 16.4445 9.33333 16.8425 9.33333 17.3333C9.33333 17.8243 9.7314 18.2223 10.2223 18.2223H13.7779C14.2688 18.2223 14.6668 17.8243 14.6668 17.3333C14.6668 16.8425 14.2688 16.4445 13.7779 16.4445H10.2223Z" fill="#92999E"/>
</svg>
