<svg width="24" height="24" viewBox="0 0 24 24" fill="none" xmlns="http://www.w3.org/2000/svg">
<path fill-rule="evenodd" clip-rule="evenodd" d="M2.86666 8.35218C3.55427 7.87919 4.4633 7.88293 5.14699 8.36153L8.08007 10.4147L10.1431 5.25722C10.4468 4.4979 11.1822 4 12 4C12.8178 4 13.5532 4.4979 13.8569 5.25722L15.9199 10.4147L18.853 8.36153C19.5366 7.88293 20.4456 7.87919 21.1333 8.35218C21.821 8.82516 22.1426 9.67539 21.9401 10.4851L19.9401 18.485C19.7176 19.3754 18.9176 20 17.9999 20H6.00006C5.08234 20 4.28238 19.3754 4.0598 18.485L2.05983 10.4851C1.85742 9.67539 2.17904 8.82516 2.86666 8.35218ZM17.9999 18H6.00006L4.0001 9.99999L8.48331 13.1383C8.74731 13.3231 9.11459 13.2136 9.23427 12.9144L12 6L14.7657 12.9144C14.8854 13.2136 15.2527 13.3231 15.5167 13.1383L19.9998 9.99999L17.9999 18Z" fill="#92999E"/>
</svg>
