<svg width="24" height="24" viewBox="0 0 24 24" fill="none" xmlns="http://www.w3.org/2000/svg">
<path fill-rule="evenodd" clip-rule="evenodd" d="M4 16.9231V6H4.00195H4.00577H4.00961H4.01346H4.01733H4.02118H4.02506H4.02895H4.03284H4.03675H4.04067H4.04459H4.04853H4.05248H4.05643H4.06039H4.06437H4.06835H4.07235H4.07635H4.08037H4.08439H4.08843H4.09247H4.09652H4.10059H4.10468H4.10875H4.11285H4.11695H4.12107H4.12519H4.12932H4.13347H4.13763H4.14179H4.14597H4.15015H4.15435H4.15856H4.16277H4.167H4.17124H4.17548H4.17974H4.18401H4.18829H4.19258H4.19688H4.20117H4.2055H4.20983H4.21418H4.21852H4.22288H4.22726H4.23164H4.23603H4.24043H4.24484H4.24927H4.2537H4.25815H4.2626H4.26708H4.27154H4.27602H4.28052H4.28502H4.28955H4.29408H4.29862H4.30318H4.30772H4.3123H4.31688H4.32147H4.32607H4.33069H4.33531H4.33995H4.34459H4.34925H4.35392H4.3586H4.36327H4.36797H4.37269H4.37741H4.38215H4.38689H4.39164H4.39641H4.40118H4.40598H4.41077H4.41557H4.42039H4.42522H4.43006H4.43491H4.43978H4.44465H4.44952H4.45442H4.45934H4.46425H4.46918H4.47413H4.47908H4.48403H4.48901H4.49399H4.49899H4.50399H4.50901H4.51404H4.51907H4.52412H4.52919H4.53426H4.53935H4.54444H4.54955H4.55468H4.5598H4.56494H4.57009H4.57525H4.58043H4.58561H4.59081H4.59602H4.60124H4.60648H4.61171H4.61698H4.62222H4.62751H4.6328H4.6381H4.64341H4.64872H4.65406H4.65941H4.66477H4.67014H4.67552H4.68091H4.68631H4.69172H4.69715H4.70259H4.70804H4.7135H4.71897H4.72446H4.72995H4.73546H4.74098H4.74651H4.75206H4.75761H4.76318H4.76875H4.77434H4.77995H4.78556H4.79117H4.79682H4.80248H4.80813H4.8138H4.81949H4.82517H4.83089H4.83661H4.84234H4.84809H4.85384H4.85961H4.86539H4.87118H4.87697H4.8828H4.88862H4.89446H4.90033H4.90617H4.91206H4.91794H4.92384H4.92975H4.93568H4.94161H4.94756H4.95352H4.95949H4.96548H4.97148H4.97747H4.98351H4.98954H4.99558H5.00164H5.00771H5.01379H5.01989H5.026H5.03211H5.03825H5.04439H5.05055H5.05671H5.0629H5.06909H5.07529H5.08151H5.08774H5.09397H5.10024H5.10651H5.11279H5.11908H5.12539H5.1317H5.13803H5.14438H5.15073H5.1571H5.16348H5.16988H5.17627H5.18269H5.18913H5.19557H5.20202H5.20849H5.21497H5.22147H5.22798H5.23449H5.24102H5.24757H5.25413H5.2607H5.26728H5.27388H5.28048H5.2871H5.29374H5.30038H5.30704H5.31372H5.3204H5.3271H5.33381H5.34053H5.34727H5.35402H5.36078H5.36756H5.37435H5.38115H5.38796H5.39479H5.40162H5.40847H5.41535H5.42223H5.42912H5.43603H5.44295H5.44988H5.45683H5.46377H5.47075H5.47774H5.48473H5.49174H5.49878H5.5058H5.51285H5.51992H5.52699H5.53408H5.54119H5.5483H5.55543H5.56257H5.56972H5.5769H5.58407H5.59127H5.59849H5.60571H5.61295H5.6202H5.62746H5.63474H5.64202H5.64933H5.65665H5.66398H5.67133H5.67867H5.68605H5.69343H5.70082H5.70824H5.71567H5.7231H5.73056H5.73803H5.7455H5.75299H5.7605H5.76803H5.77555H5.7831H5.79066H5.79824H5.80583H5.81343H5.82104H5.82867H5.83631H5.84398H5.85164H5.85933H5.86703H5.87474H5.88246H5.8902H5.89796H5.90572H5.9135H5.9213H5.92911H5.93692H5.94477H5.95263H5.96048H5.96836H5.97625H5.98416H5.99208H6.00003H6.00796H6.01592H6.0239H6.03189H6.0399H6.04792H6.05595H6.064H6.07206H6.08013H6.08823H6.09633H6.10444H6.11258H6.12073H6.12888H6.13706H6.14525H6.15345H6.16167H6.1699H6.17814H6.1864H6.19468H6.20298H6.21127H6.21959H6.22792H6.23627H6.24462H6.253H6.26139H6.26979H6.27821H6.28664H6.29509H6.30355H6.31203H6.32052H6.32902H6.33754H6.34608H6.35463H6.36319H6.37176H6.38036H6.38896H6.39757H6.40623H6.41487H6.42354H6.43222H6.44091H6.44963H6.45834H6.46707H6.47583H6.4846H6.49338H6.50217H6.51099H6.51982H6.52866H6.53752H6.54639H6.55528H6.56418H6.57309H6.58203H6.59098H6.59992H6.6089H6.6179H6.6269H6.63592H6.64496H6.65401H6.66307H6.67215H6.68124H6.69035H6.69947H6.70863H6.71777H6.72694H6.73612H6.74533H6.75455H6.76377H6.77302H6.78227H6.79156H6.80085H6.81015H6.81948H6.82881H6.83816H6.84753H6.85691H6.86631H6.87572H6.88515H6.89459H6.90405H6.91352H6.92301H6.93252H6.94204H6.95158H6.96112H6.97069H6.98028H6.98987H6.99947H7.00911H7.01875H7.02841H7.03807H7.04777H7.05747H7.06719H7.07693H7.08668H7.09645H7.10623H7.11603H7.12584H7.13568H7.14552H7.15538H7.16525H7.17514H7.18505H7.19498H7.20491H7.21487H7.22484H7.23483H7.24482H7.25484H7.26488H7.27493H7.28499H7.29506H7.30516H7.31528H7.3254H7.33554H7.3457H7.35587H7.36608H7.37628H7.3865H7.39674H7.40699H7.41726H7.42755H7.43785H7.44818H7.4585H7.46885H7.47922H7.4896H7.5H7.50332H7.50668H7.51H7.51332H7.51665H7.51997H7.5233H7.52662H7.52994H7.53326H7.53657H7.5399H7.54321H7.54653H7.54982H7.55314H7.55645H7.55976H7.56306H7.56636H7.56966H7.57296H7.57626H7.57956H7.58285H7.58614H7.58944H7.59273H7.59601H7.5993H7.60257H7.60588H7.60915H7.61243H7.61571H7.61898H7.62226H7.62553H7.6288H7.63208H7.63534H7.63861H7.64188H7.64512H7.6484H7.65166H7.65493H7.65817H7.66142H7.66468H7.66792H7.67118H7.67442H7.67768H7.68093H7.68417H7.68741H7.69065H7.69389H7.69713H7.70036H7.7036H7.70683H7.71006H7.71329H7.71652H7.71974H7.72298H7.72619H7.72941H7.73263H7.73585H7.73907H7.74228H7.74549H7.7487H7.75191H7.75513H7.75832H7.76153H7.76474H7.76794H7.77114H7.77434H7.77752H7.78072H7.78393H7.78713H7.79031H7.79349H7.79668H7.79988H7.80305H7.80622H7.80941H7.81259H7.81577H7.81895H7.82213H7.82529H7.82847H7.83162H7.8348H7.83798H7.84113H7.8443H7.84746H7.85063H7.85378H7.85693H7.86009H7.86324H7.86639H7.86954H7.87269H7.87584H7.87899H7.88212H7.88528H7.88841H7.89155H7.89469H7.89782H7.90096H7.90409H7.90723H7.91035H7.91348H7.91661H7.91972H7.92285H7.92597H7.9291H7.93221H7.93533H7.93845H7.94156H7.94468H7.94778H7.95089H7.954H7.9571H7.96021H7.96331H7.96641H7.96951H7.97261H7.9757H7.9788H7.98189H7.98498H7.98808H7.99116H7.99425H7.99733H8.00043H8.0035H8.00658H8.00966H8.01273H8.01581H8.01888H8.02195H8.02503H8.02809H8.03116H8.03423H8.03729H8.04036H8.04343H8.04648H8.04953H8.05259H8.05565H8.0587H8.06175H8.0648H8.06785H8.0709H8.07394H8.07699H8.08002H8.08307H8.08611H8.08915H8.09218H8.09523H8.09825H8.10128H8.10431H8.10734H8.11037H8.11339H8.11641H8.11944H8.12246H8.12548H8.12849H8.13151H8.13452H8.13752H8.14055H8.14355H8.14656H8.14958H8.15258H8.15557H8.15857H8.16157H8.16458H8.16758H8.17058H8.17356H8.17655H8.17955H8.18253H8.18553H8.18851H8.19149H8.19448H8.19746H8.20044H8.20341H8.20639H8.20938H8.21234H8.21531H8.21827H8.22125H8.22423H8.22717H8.23015H8.23311H8.23608H8.23902H8.24199H8.24495H8.2479H8.25085H8.25381H8.25676H8.2597H8.26265H8.2656H8.26854H8.27147H8.27442H8.27736H8.2803H8.28324H8.28618H8.28911H8.29204H8.29498H8.2979H8.30082H8.30375H8.30668H8.30959H8.31253H8.31543H8.31835H8.32128H8.32418H8.3271H8.33001H8.33292H8.33582H8.33873H8.34164H8.34454H8.34745H8.35035H8.35325H8.35614H8.35904H8.36193H8.36482H8.36773H8.37061H8.3735H8.37637H8.37927H8.38215H8.38504H8.38793H8.3908H8.39368H8.39655H8.39943H8.4023H8.40517H8.40804H8.41091H8.41378H8.41664H8.41951H8.42237H8.42523H8.42809H8.43095H8.4338H8.43666H8.43951H8.44236H8.44521H8.44806H8.45091H8.45376H8.4566H8.45944H8.46227H8.46513H8.46796H8.4708H8.47362H8.47648H8.4793H8.48212H8.48496H8.48779H8.49061H8.49344H8.49626H8.49908H8.5019H8.50473H8.50754H8.51035H8.51317H8.51597H8.51879H8.5216H8.52441H8.52721H8.53003H8.53283H8.53562H8.53843H8.54122H8.54402H8.54683H8.54961H8.5524H8.55519H8.55797H8.56078H8.56356H8.56634H8.56913H8.57191H8.57469H8.57748H8.58025H8.58302H8.5858H8.58858H8.59134H8.59411H8.59688H8.59965H8.60242H8.60518H8.60794H8.6107H8.61346H8.61623H8.61897H8.62172H8.62449H8.62724H8.62999H8.63274H8.63549H8.63822H8.64097H8.64373H8.64646H8.6492H8.65194H8.65468H8.65741H8.66015H8.66287H8.66561H8.66834H8.67108H8.6738H8.67652H8.67925H8.68198H8.68469H8.68741H8.69012H8.69284H8.69556H8.69828H8.70097H8.70369H8.7064H8.70911H8.71183H8.71453H8.71722H8.71992H8.72262H8.72532H8.72803H8.73073H8.73341H8.7361H8.7388H8.74149H8.74417H8.74686H8.74955H8.75223H8.75491H8.75759H8.76027H8.76295H8.76562H8.7683H8.77097H8.77365H8.77633H8.77899H8.78165H8.78433H8.78698H8.78965H8.79231H8.79497H8.79762H8.80029H8.80294H8.8056H8.80825H8.8109H8.81355H8.8162H8.81885H8.82149H8.82414H8.82678H8.82943H8.83206H8.8347H8.83733H8.83998H8.8426H8.84523H8.84788H8.85049H8.85313H8.85575H8.85838H8.861H8.86363H8.86624H8.86886H8.87147H8.87409H8.87671H8.87932H8.88192H8.88454H8.88715H8.88976H8.89237H8.89497H8.89758H8.90018H8.90278H8.90538H8.90798H8.91058H8.91316H8.91576H8.91835H8.92094H8.92352H8.92611H8.9287H8.93128H8.93388H8.93645H8.93902H8.94161H8.94417H8.94676H8.94933H8.9519H8.95448H8.95705H8.95961H8.96217H8.96475H8.96731H8.96988H8.97242H8.97499H8.97755H8.98011H8.98266H8.98523H8.98777H8.99032H8.99287H8.99543H8.99798H9.00051C10.1049 6 11 6.89521 11 8V17.5116C10.1209 17.2205 8.88714 16.9231 7.5 16.9231H7.48536H7.47073H7.45611H7.4415H7.4269H7.41233H7.39775H7.38318H7.36864H7.3541H7.33957H7.32506H7.31056H7.29607H7.2816H7.26714H7.25269H7.23825H7.22382H7.20941H7.19501H7.18062H7.16625H7.15189H7.13754H7.12321H7.10888H7.09458H7.08027H7.066H7.05172H7.03748H7.02322H7.00901H6.99479H6.98059H6.96641H6.95224H6.93807H6.92393H6.9098H6.89569H6.88159H6.8675H6.85343H6.83938H6.82533H6.81129H6.79728H6.78328H6.7693H6.75533H6.74138H6.72742H6.7135H6.69959H6.6857H6.67182H6.65796H6.64411H6.63028H6.61646H6.60265H6.58887H6.5751H6.56134H6.5476H6.53387H6.52017H6.50648H6.49281H6.47915H6.4655H6.45188H6.43828H6.42468H6.4111H6.39754H6.384H6.37048H6.35696H6.34346H6.32999H6.31652H6.30309H6.28966H6.27626H6.26288H6.24949H6.23614H6.2228H6.20947H6.19618H6.18289H6.16963H6.15637H6.14314H6.12993H6.11673H6.10355H6.09039H6.07725H6.06413H6.05102H6.03794H6.02487H6.01183H5.99879H5.98578H5.97278H5.95981H5.94685H5.93393H5.921H5.9081H5.89522H5.88236H5.86952H5.8567H5.8439H5.83111H5.81835H5.80561H5.79288H5.78017H5.7675H5.75482H5.74219H5.72956H5.71696H5.70438H5.69181H5.67927H5.66674H5.65424H5.64176H5.6293H5.61686H5.60444H5.59204H5.57966H5.5673H5.55496H5.54265H5.53035H5.51808H5.50583H5.4936H5.48139H5.4692H5.45702H5.44489H5.43276H5.42066H5.40858H5.39653H5.38449H5.37247H5.36048H5.34851H5.33656H5.32464H5.31273H5.30085H5.28899H5.27716H5.26534H5.25355H5.24179H5.23004H5.21833H5.20662H5.19494H5.18329H5.17166H5.16005H5.14847H5.1369H5.12537H5.11385H5.10236H5.0909H5.07945H5.06803H5.05664H5.04527H5.03392H5.02259H5.01129H5.00002H4.98878H4.97754H4.96634H4.95516H4.944H4.93287H4.92177H4.91069H4.89963H4.8886H4.8776H4.86661H4.85566H4.84472H4.83383H4.82294H4.81208H4.80125H4.79045H4.77968H4.76893H4.75819H4.74749H4.73681H4.72616H4.71553H4.70492H4.69436H4.68381H4.67329H4.6628H4.65233H4.64189H4.63148H4.62107H4.61072H4.60038H4.59008H4.57979H4.56952H4.5593H4.5491H4.53893H4.52878H4.51866H4.50856H4.4985H4.48846H4.47844H4.46846H4.4585H4.44858H4.43868H4.4288H4.41895H4.40912H4.39934H4.38957H4.37985H4.37014H4.36046H4.35081H4.34119H4.3316H4.32204H4.3125H4.30299H4.29351H4.28406H4.27464H4.26525H4.25589H4.24655H4.23725H4.22797H4.21872H4.20951H4.20032H4.19116H4.18203H4.17293H4.16386H4.15483H4.14581H4.13683H4.12787H4.11896H4.11008H4.10121H4.09238H4.08357H4.07481H4.06608H4.05736H4.04867H4.04002H4.03141H4.02283H4.01428H4.00575H4ZM11.5265 19.8808H11.5263C11.5261 19.8808 11.5259 19.8805 12 19L11.5259 19.8805L11.5177 19.8763C11.5076 19.871 11.4903 19.8622 11.466 19.8502C11.4176 19.8262 11.3417 19.7897 11.2414 19.7451C11.0404 19.6556 10.7433 19.5335 10.373 19.4107C9.62715 19.1637 8.61179 18.9231 7.5 18.9231H7.48536H7.47073H7.45611H7.4415H7.4269H7.41233H7.39775H7.38318H7.36864H7.3541H7.33957H7.32506H7.31056H7.29607H7.2816H7.26714H7.25269H7.23825H7.22382H7.20941H7.19501H7.18062H7.16625H7.15189H7.13754H7.12321H7.10888H7.09458H7.08027H7.066H7.05172H7.03748H7.02322H7.00901H6.99479H6.98059H6.96641H6.95224H6.93807H6.92393H6.9098H6.89569H6.88159H6.8675H6.85343H6.83938H6.82533H6.81129H6.79728H6.78328H6.7693H6.75533H6.74138H6.72742H6.7135H6.69959H6.6857H6.67182H6.65796H6.64411H6.63028H6.61646H6.60265H6.58887H6.5751H6.56134H6.5476H6.53387H6.52017H6.50648H6.49281H6.47915H6.4655H6.45188H6.43828H6.42468H6.4111H6.39754H6.384H6.37048H6.35696H6.34346H6.32999H6.31652H6.30309H6.28966H6.27626H6.26288H6.24949H6.23614H6.2228H6.20947H6.19618H6.18289H6.16963H6.15637H6.14314H6.12993H6.11673H6.10355H6.09039H6.07725H6.06413H6.05102H6.03794H6.02487H6.01183H5.99879H5.98578H5.97278H5.95981H5.94685H5.93393H5.921H5.9081H5.89522H5.88236H5.86952H5.8567H5.8439H5.83111H5.81835H5.80561H5.79288H5.78017H5.7675H5.75482H5.74219H5.72956H5.71696H5.70438H5.69181H5.67927H5.66674H5.65424H5.64176H5.6293H5.61686H5.60444H5.59204H5.57966H5.5673H5.55496H5.54265H5.53035H5.51808H5.50583H5.4936H5.48139H5.4692H5.45702H5.44489H5.43276H5.42066H5.40858H5.39653H5.38449H5.37247H5.36048H5.34851H5.33656H5.32464H5.31273H5.30085H5.28899H5.27716H5.26534H5.25355H5.24179H5.23004H5.21833H5.20662H5.19494H5.18329H5.17166H5.16005H5.14847H5.1369H5.12537H5.11385H5.10236H5.0909H5.07945H5.06803H5.05664H5.04527H5.03392H5.02259H5.01129H5.00002H4.98878H4.97754H4.96634H4.95516H4.944H4.93287H4.92177H4.91069H4.89963H4.8886H4.8776H4.86661H4.85566H4.84472H4.83383H4.82294H4.81208H4.80125H4.79045H4.77968H4.76893H4.75819H4.74749H4.73681H4.72616H4.71553H4.70492H4.69436H4.68381H4.67329H4.6628H4.65233H4.64189H4.63148H4.62107H4.61072H4.60038H4.59008H4.57979H4.56952H4.5593H4.5491H4.53893H4.52878H4.51866H4.50856H4.4985H4.48846H4.47844H4.46846H4.4585H4.44858H4.43868H4.4288H4.41895H4.40912H4.39934H4.38957H4.37985H4.37014H4.36046H4.35081H4.34119H4.3316H4.32204H4.3125H4.30299H4.29351H4.28406H4.27464H4.26525H4.25589H4.24655H4.23725H4.22797H4.21872H4.20951H4.20032H4.19116H4.18203H4.17293H4.16386H4.15483H4.14581H4.13683H4.12787H4.11896H4.11008H4.10121H4.09238H4.08357H4.07481H4.06608H4.05736H4.04867H4.04002H4.03141H4.02283H4.01428H4.00575H3.99725H3.98879H3.98035H3.97195H3.96358H3.95524H3.94694H3.93866H3.93041H3.9222H3.91402H3.90588H3.89775H3.88966H3.88161H3.87359H3.86559H3.85764H3.84971H3.84181H3.83395H3.82612H3.81833H3.81056H3.80283H3.79513H3.78746H3.77982H3.77223H3.76465H3.75711H3.74961H3.74214H3.7347H3.7273H3.71992H3.71259H3.70528H3.69801H3.69078H3.68358H3.6764H3.66926H3.66216H3.65509H3.64806H3.64105H3.63409H3.62715H3.62026H3.61339H3.60656H3.59977H3.593H3.58627H3.57959H3.57293H3.5663H3.55972H3.55316H3.54664H3.54016H3.53371H3.5273H3.52093H3.51458H3.50827H3.502H3.49576H3.48956H3.4834H3.47728H3.47117H3.46511H3.45909H3.4531H3.44715H3.44124H3.43536H3.42953H3.42371H3.41794H3.41221H3.40651H3.40085H3.39522H3.38964H3.38409H3.37857H3.3731H3.36766H3.36226H3.35689H3.35156H3.34628H3.34102H3.3358H3.33062H3.32547H3.32038H3.31531H3.31028H3.30529H3.30032H3.29542H3.29054H3.2857H3.2809H3.27613H3.27141H3.26673H3.26208H3.25746H3.25289H3.24836H3.24386H3.2394H3.23499H3.23061H3.22627H3.22197H3.21771H3.21348H3.2093H3.20516H3.20105H3.19698H3.19296H3.18897H3.18502H3.18112H3.17725H3.17342H3.16963H3.16588H3.16217H3.1585H3.15488H3.15129H3.14774H3.14423H3.14076H3.13734H3.13395H3.1306H3.1273H3.12403H3.12081H3.11762H3.11448H3.11138H3.10832H3.1053H3.10232H3.09938H3.09649H3.09363H3.09082H3.08805H3.08532H3.08263H3.07998H3.07738H3.07482H3.07229H3.06981H3.06738H3.06498H3.06263H3.06032H3.05805H3.05582H3.05364H3.0515H3.0494H3.04734H3.04533H3.04336H3.04143H3.03955H3.0377H3.03591H3.03415H3.03244H3.03077H3.02914H3.02756H3.02602H3.02452H3.02307H3.02166H3.0203H3.01898H3.0177H3.01647H3.01528H3.01413H3.01303H3.01197H3.01096H3.00999H3.00907H3.00819H3.00735H3.00656H3.00581H3.00511H3.00446H3.00384H3.00328H3.00275H3.00228H3.00185H3.00146H3.00112H3.00082H3.00057H3.00037H3.00021H3.00009H3.00002L3 17.9231V18.9231C2.44772 18.9231 2 18.4754 2 17.9231V6C2 4.89787 2.89112 4 3.99813 4H4.00195H4.00577H4.00961H4.01346H4.01733H4.02118H4.02506H4.02895H4.03284H4.03675H4.04067H4.04459H4.04853H4.05248H4.05643H4.06039H4.06437H4.06835H4.07235H4.07635H4.08037H4.08439H4.08843H4.09247H4.09652H4.10059H4.10468H4.10875H4.11285H4.11695H4.12107H4.12519H4.12932H4.13347H4.13763H4.14179H4.14597H4.15015H4.15435H4.15856H4.16277H4.167H4.17124H4.17548H4.17974H4.18401H4.18829H4.19258H4.19688H4.20117H4.2055H4.20983H4.21418H4.21852H4.22288H4.22726H4.23164H4.23603H4.24043H4.24484H4.24927H4.2537H4.25815H4.2626H4.26708H4.27154H4.27602H4.28052H4.28502H4.28955H4.29408H4.29862H4.30318H4.30772H4.3123H4.31688H4.32147H4.32607H4.33069H4.33531H4.33995H4.34459H4.34925H4.35392H4.3586H4.36327H4.36797H4.37269H4.37741H4.38215H4.38689H4.39164H4.39641H4.40118H4.40598H4.41077H4.41557H4.42039H4.42522H4.43006H4.43491H4.43978H4.44465H4.44952H4.45442H4.45934H4.46425H4.46918H4.47413H4.47908H4.48403H4.48901H4.49399H4.49899H4.50399H4.50901H4.51404H4.51907H4.52412H4.52919H4.53426H4.53935H4.54444H4.54955H4.55468H4.5598H4.56494H4.57009H4.57525H4.58043H4.58561H4.59081H4.59602H4.60124H4.60648H4.61171H4.61698H4.62222H4.62751H4.6328H4.6381H4.64341H4.64872H4.65406H4.65941H4.66477H4.67014H4.67552H4.68091H4.68631H4.69172H4.69715H4.70259H4.70804H4.7135H4.71897H4.72446H4.72995H4.73546H4.74098H4.74651H4.75206H4.75761H4.76318H4.76875H4.77434H4.77995H4.78556H4.79117H4.79682H4.80248H4.80813H4.8138H4.81949H4.82517H4.83089H4.83661H4.84234H4.84809H4.85384H4.85961H4.86539H4.87118H4.87697H4.8828H4.88862H4.89446H4.90033H4.90617H4.91206H4.91794H4.92384H4.92975H4.93568H4.94161H4.94756H4.95352H4.95949H4.96548H4.97148H4.97747H4.98351H4.98954H4.99558H5.00164H5.00771H5.01379H5.01989H5.026H5.03211H5.03825H5.04439H5.05055H5.05671H5.0629H5.06909H5.07529H5.08151H5.08774H5.09397H5.10024H5.10651H5.11279H5.11908H5.12539H5.1317H5.13803H5.14438H5.15073H5.1571H5.16348H5.16988H5.17627H5.18269H5.18913H5.19557H5.20202H5.20849H5.21497H5.22147H5.22798H5.23449H5.24102H5.24757H5.25413H5.2607H5.26728H5.27388H5.28048H5.2871H5.29374H5.30038H5.30704H5.31372H5.3204H5.3271H5.33381H5.34053H5.34727H5.35402H5.36078H5.36756H5.37435H5.38115H5.38796H5.39479H5.40162H5.40847H5.41535H5.42223H5.42912H5.43603H5.44295H5.44988H5.45683H5.46377H5.47075H5.47774H5.48473H5.49174H5.49878H5.5058H5.51285H5.51992H5.52699H5.53408H5.54119H5.5483H5.55543H5.56257H5.56972H5.5769H5.58407H5.59127H5.59849H5.60571H5.61295H5.6202H5.62746H5.63474H5.64202H5.64933H5.65665H5.66398H5.67133H5.67867H5.68605H5.69343H5.70082H5.70824H5.71567H5.7231H5.73056H5.73803H5.7455H5.75299H5.7605H5.76803H5.77555H5.7831H5.79066H5.79824H5.80583H5.81343H5.82104H5.82867H5.83631H5.84398H5.85164H5.85933H5.86703H5.87474H5.88246H5.8902H5.89796H5.90572H5.9135H5.9213H5.92911H5.93692H5.94477H5.95263H5.96048H5.96836H5.97625H5.98416H5.99208H6.00003H6.00796H6.01592H6.0239H6.03189H6.0399H6.04792H6.05595H6.064H6.07206H6.08013H6.08823H6.09633H6.10444H6.11258H6.12073H6.12888H6.13706H6.14525H6.15345H6.16167H6.1699H6.17814H6.1864H6.19468H6.20298H6.21127H6.21959H6.22792H6.23627H6.24462H6.253H6.26139H6.26979H6.27821H6.28664H6.29509H6.30355H6.31203H6.32052H6.32902H6.33754H6.34608H6.35463H6.36319H6.37176H6.38036H6.38896H6.39757H6.40623H6.41487H6.42354H6.43222H6.44091H6.44963H6.45834H6.46707H6.47583H6.4846H6.49338H6.50217H6.51099H6.51982H6.52866H6.53752H6.54639H6.55528H6.56418H6.57309H6.58203H6.59098H6.59992H6.6089H6.6179H6.6269H6.63592H6.64496H6.65401H6.66307H6.67215H6.68124H6.69035H6.69947H6.70863H6.71777H6.72694H6.73612H6.74533H6.75455H6.76377H6.77302H6.78227H6.79156H6.80085H6.81015H6.81948H6.82881H6.83816H6.84753H6.85691H6.86631H6.87572H6.88515H6.89459H6.90405H6.91352H6.92301H6.93252H6.94204H6.95158H6.96112H6.97069H6.98028H6.98987H6.99947H7.00911H7.01875H7.02841H7.03807H7.04777H7.05747H7.06719H7.07693H7.08668H7.09645H7.10623H7.11603H7.12584H7.13568H7.14552H7.15538H7.16525H7.17514H7.18505H7.19498H7.20491H7.21487H7.22484H7.23483H7.24482H7.25484H7.26488H7.27493H7.28499H7.29506H7.30516H7.31528H7.3254H7.33554H7.3457H7.35587H7.36608H7.37628H7.3865H7.39674H7.40699H7.41726H7.42755H7.43785H7.44818H7.4585H7.46885H7.47922H7.4896H7.5H7.50332H7.50668H7.51H7.51332H7.51665H7.51997H7.5233H7.52662H7.52994H7.53326H7.53657H7.5399H7.54321H7.54653H7.54982H7.55314H7.55645H7.55976H7.56306H7.56636H7.56966H7.57296H7.57626H7.57956H7.58285H7.58614H7.58944H7.59273H7.59601H7.5993H7.60257H7.60588H7.60915H7.61243H7.61571H7.61898H7.62226H7.62553H7.6288H7.63208H7.63534H7.63861H7.64188H7.64512H7.6484H7.65166H7.65493H7.65817H7.66142H7.66468H7.66792H7.67118H7.67442H7.67768H7.68093H7.68417H7.68741H7.69065H7.69389H7.69713H7.70036H7.7036H7.70683H7.71006H7.71329H7.71652H7.71974H7.72298H7.72619H7.72941H7.73263H7.73585H7.73907H7.74228H7.74549H7.7487H7.75191H7.75513H7.75832H7.76153H7.76474H7.76794H7.77114H7.77434H7.77752H7.78072H7.78393H7.78713H7.79031H7.79349H7.79668H7.79988H7.80305H7.80622H7.80941H7.81259H7.81577H7.81895H7.82213H7.82529H7.82847H7.83162H7.8348H7.83798H7.84113H7.8443H7.84746H7.85063H7.85378H7.85693H7.86009H7.86324H7.86639H7.86954H7.87269H7.87584H7.87899H7.88212H7.88528H7.88841H7.89155H7.89469H7.89782H7.90096H7.90409H7.90723H7.91035H7.91348H7.91661H7.91972H7.92285H7.92597H7.9291H7.93221H7.93533H7.93845H7.94156H7.94468H7.94778H7.95089H7.954H7.9571H7.96021H7.96331H7.96641H7.96951H7.97261H7.9757H7.9788H7.98189H7.98498H7.98808H7.99116H7.99425H7.99733H8.00043H8.0035H8.00658H8.00966H8.01273H8.01581H8.01888H8.02195H8.02503H8.02809H8.03116H8.03423H8.03729H8.04036H8.04343H8.04648H8.04953H8.05259H8.05565H8.0587H8.06175H8.0648H8.06785H8.0709H8.07394H8.07699H8.08002H8.08307H8.08611H8.08915H8.09218H8.09523H8.09825H8.10128H8.10431H8.10734H8.11037H8.11339H8.11641H8.11944H8.12246H8.12548H8.12849H8.13151H8.13452H8.13752H8.14055H8.14355H8.14656H8.14958H8.15258H8.15557H8.15857H8.16157H8.16458H8.16758H8.17058H8.17356H8.17655H8.17955H8.18253H8.18553H8.18851H8.19149H8.19448H8.19746H8.20044H8.20341H8.20639H8.20938H8.21234H8.21531H8.21827H8.22125H8.22423H8.22717H8.23015H8.23311H8.23608H8.23902H8.24199H8.24495H8.2479H8.25085H8.25381H8.25676H8.2597H8.26265H8.2656H8.26854H8.27147H8.27442H8.27736H8.2803H8.28324H8.28618H8.28911H8.29204H8.29498H8.2979H8.30082H8.30375H8.30668H8.30959H8.31253H8.31543H8.31835H8.32128H8.32418H8.3271H8.33001H8.33292H8.33582H8.33873H8.34164H8.34454H8.34745H8.35035H8.35325H8.35614H8.35904H8.36193H8.36482H8.36773H8.37061H8.3735H8.37637H8.37927H8.38215H8.38504H8.38793H8.3908H8.39368H8.39655H8.39943H8.4023H8.40517H8.40804H8.41091H8.41378H8.41664H8.41951H8.42237H8.42523H8.42809H8.43095H8.4338H8.43666H8.43951H8.44236H8.44521H8.44806H8.45091H8.45376H8.4566H8.45944H8.46227H8.46513H8.46796H8.4708H8.47362H8.47648H8.4793H8.48212H8.48496H8.48779H8.49061H8.49344H8.49626H8.49908H8.5019H8.50473H8.50754H8.51035H8.51317H8.51597H8.51879H8.5216H8.52441H8.52721H8.53003H8.53283H8.53562H8.53843H8.54122H8.54402H8.54683H8.54961H8.5524H8.55519H8.55797H8.56078H8.56356H8.56634H8.56913H8.57191H8.57469H8.57748H8.58025H8.58302H8.5858H8.58858H8.59134H8.59411H8.59688H8.59965H8.60242H8.60518H8.60794H8.6107H8.61346H8.61623H8.61897H8.62172H8.62449H8.62724H8.62999H8.63274H8.63549H8.63822H8.64097H8.64373H8.64646H8.6492H8.65194H8.65468H8.65741H8.66015H8.66287H8.66561H8.66834H8.67108H8.6738H8.67652H8.67925H8.68198H8.68469H8.68741H8.69012H8.69284H8.69556H8.69828H8.70097H8.70369H8.7064H8.70911H8.71183H8.71453H8.71722H8.71992H8.72262H8.72532H8.72803H8.73073H8.73341H8.7361H8.7388H8.74149H8.74417H8.74686H8.74955H8.75223H8.75491H8.75759H8.76027H8.76295H8.76562H8.7683H8.77097H8.77365H8.77633H8.77899H8.78165H8.78433H8.78698H8.78965H8.79231H8.79497H8.79762H8.80029H8.80294H8.8056H8.80825H8.8109H8.81355H8.8162H8.81885H8.82149H8.82414H8.82678H8.82943H8.83206H8.8347H8.83733H8.83998H8.8426H8.84523H8.84788H8.85049H8.85313H8.85575H8.85838H8.861H8.86363H8.86624H8.86886H8.87147H8.87409H8.87671H8.87932H8.88192H8.88454H8.88715H8.88976H8.89237H8.89497H8.89758H8.90018H8.90278H8.90538H8.90798H8.91058H8.91316H8.91576H8.91835H8.92094H8.92352H8.92611H8.9287H8.93128H8.93388H8.93645H8.93902H8.94161H8.94417H8.94676H8.94933H8.9519H8.95448H8.95705H8.95961H8.96217H8.96475H8.96731H8.96988H8.97242H8.97499H8.97755H8.98011H8.98266H8.98523H8.98777H8.99032H8.99287H8.99543H8.99798H9.00051C10.1952 4 11.2672 4.52367 12 5.35392C12.7328 4.52367 13.8048 4 14.9995 4H15.002H15.0046H15.0071H15.0097H15.0122H15.0148H15.0173H15.0199H15.0224H15.025H15.0276H15.0301H15.0327H15.0352H15.0377H15.0404H15.043H15.0455H15.0481H15.0508H15.0533H15.0558H15.0584H15.061H15.0636H15.0661H15.0687H15.0712H15.0739H15.0765H15.0791H15.0817H15.0842H15.0868H15.0894H15.092H15.0946H15.0973H15.0998H15.1024H15.105H15.1076H15.1103H15.1128H15.1155H15.1181H15.1208H15.1233H15.1259H15.1285H15.1311H15.1337H15.1364H15.139H15.1416H15.1442H15.1469H15.1495H15.1521H15.1547H15.1574H15.16H15.1628H15.1652H15.1679H15.1706H15.1732H15.1759H15.1785H15.1813H15.1837H15.1865H15.1891H15.1918H15.1944H15.1971H15.1998H15.2024H15.205H15.2078H15.2104H15.213H15.2158H15.2183H15.221H15.2238H15.2264H15.229H15.2317H15.2344H15.237H15.2397H15.2424H15.2451H15.2477H15.2505H15.2531H15.2557H15.2585H15.2613H15.2639H15.2666H15.2693H15.272H15.2747H15.2774H15.2801H15.2827H15.2855H15.2882H15.2909H15.2936H15.2963H15.299H15.3018H15.3044H15.3072H15.3099H15.3126H15.3152H15.318H15.3207H15.3235H15.3263H15.3289H15.3317H15.3344H15.3371H15.3399H15.3426H15.3452H15.3481H15.3508H15.3535H15.3563H15.359H15.3617H15.3645H15.3672H15.37H15.3728H15.3755H15.3782H15.381H15.3837H15.3865H15.3893H15.3921H15.3948H15.3976H15.4004H15.4031H15.4059H15.4088H15.4114H15.4142H15.417H15.4197H15.4225H15.4253H15.4281H15.4309H15.4337H15.4364H15.4392H15.442H15.4448H15.4476H15.4504H15.4532H15.456H15.4588H15.4616H15.4644H15.4672H15.47H15.4728H15.4756H15.4784H15.4812H15.484H15.4868H15.4896H15.4925H15.4952H15.4981H15.5009H15.5038H15.5066H15.5094H15.5123H15.515H15.5179H15.5207H15.5235H15.5264H15.5292H15.532H15.5349H15.5378H15.5406H15.5434H15.5462H15.5491H15.5519H15.5547H15.5576H15.5605H15.5633H15.5662H15.5691H15.5719H15.5748H15.5776H15.5805H15.5834H15.5863H15.5891H15.592H15.5948H15.5977H15.6006H15.6034H15.6063H15.6092H15.6121H15.615H15.6178H15.6207H15.6236H15.6265H15.6294H15.6322H15.6353H15.6381H15.641H15.6439H15.6468H15.6497H15.6526H15.6555H15.6584H15.6612H15.6643H15.6671H15.67H15.6729H15.6758H15.6787H15.6816H15.6846H15.6875H15.6904H15.6933H15.6962H15.6993H15.7021H15.705H15.708H15.7109H15.7137H15.7168H15.7197H15.7226H15.7256H15.7285H15.7315H15.7344H15.7373H15.7402H15.7433H15.7462H15.7491H15.7521H15.7551H15.758H15.761H15.7639H15.7669H15.7699H15.7727H15.7758H15.7787H15.7818H15.7847H15.7878H15.7906H15.7936H15.7966H15.7996H15.8025H15.8055H15.8085H15.8115H15.8145H15.8175H15.8205H15.8234H15.8264H15.8294H15.8324H15.8354H15.8384H15.8414H15.8444H15.8474H15.8504H15.8534H15.8564H15.8595H15.8625H15.8655H15.8685H15.8715H15.8745H15.8775H15.8806H15.8836H15.8866H15.8896H15.8927H15.8958H15.8988H15.9017H15.9048H15.9077H15.9109H15.9139H15.9169H15.92H15.923H15.9261H15.9291H15.9321H15.9353H15.9383H15.9412H15.9444H15.9474H15.9505H15.9535H15.9566H15.9596H15.9628H15.9657H15.9688H15.9719H15.975H15.978H15.9811H15.9842H15.9873H15.9902H15.9934H15.9965H15.9996H16.0027H16.0058H16.0087H16.0119H16.015H16.0181H16.0213H16.0243H16.0274H16.0305H16.0336H16.0367H16.0398H16.0429H16.046H16.0491H16.0523H16.0552H16.0584H16.0616H16.0647H16.0677H16.0709H16.074H16.0771H16.0803H16.0834H16.0865H16.0896H16.0928H16.0959H16.099H16.1023H16.1052H16.1084H16.1116H16.1147H16.1179H16.121H16.1243H16.1272H16.1305H16.1336H16.1367H16.1399H16.1431H16.1463H16.1494H16.1525H16.1558H16.1589H16.162H16.1653H16.1684H16.1715H16.1747H16.1779H16.1811H16.1842H16.1874H16.1906H16.1937H16.1969H16.2001H16.2033H16.2065H16.2097H16.2129H16.2161H16.2192H16.2225H16.2257H16.2289H16.2321H16.2352H16.2385H16.2418H16.2449H16.2481H16.2513H16.2545H16.2578H16.2609H16.2642H16.2674H16.2706H16.2737H16.277H16.2803H16.2835H16.2868H16.2899H16.2932H16.2964H16.2996H16.3029H16.3061H16.3093H16.3126H16.3157H16.3191H16.3222H16.3256H16.3288H16.3321H16.3352H16.3386H16.3418H16.3451H16.3482H16.3516H16.3549H16.3581H16.3614H16.3648H16.3679H16.3712H16.3745H16.3778H16.381H16.3842H16.3876H16.3909H16.3941H16.3974H16.4008H16.404H16.4072H16.4106H16.4139H16.4171H16.4204H16.4237H16.427H16.4302H16.4336H16.4369H16.4403H16.4435H16.4469H16.4502H16.4535H16.4568H16.4601H16.4634H16.4667H16.4701H16.4734H16.4767H16.48H16.4833H16.4868H16.49H16.4932H16.4967H16.5H16.5104H16.5208H16.5311H16.5415H16.5518H16.5623H16.5725H16.5827H16.593H16.6033H16.6135H16.6238H16.6339H16.6441H16.6543H16.6645H16.6746H16.6847H16.6948H16.7049H16.715H16.7251H16.7351H16.7452H16.7553H16.7652H16.7752H16.7851H16.7951H16.805H16.8149H16.8249H16.8347H16.8446H16.8545H16.8643H16.8742H16.884H16.8937H16.9036H16.9133H16.9231H16.9328H16.9425H16.9522H16.9619H16.9716H16.9812H16.9909H17.0005H17.0101H17.0198H17.0293H17.0389H17.0484H17.058H17.0675H17.077H17.0865H17.0959H17.1054H17.1149H17.1242H17.1338H17.1431H17.1525H17.1618H17.1713H17.1805H17.1898H17.1992H17.2084H17.2178H17.227H17.2363H17.2455H17.2548H17.2639H17.2731H17.2822H17.2914H17.3005H17.3096H17.3188H17.3279H17.3369H17.346H17.355H17.3641H17.3731H17.3821H17.3911H17.4001H17.409H17.418H17.4269H17.4358H17.4447H17.4536H17.4625H17.4712H17.4803H17.489H17.4978H17.5066H17.5154H17.5243H17.5329H17.5418H17.5504H17.5591H17.5677H17.5765H17.5851H17.5938H17.6024H17.611H17.6196H17.6282H17.6368H17.6454H17.6539H17.6625H17.671H17.6795H17.688H17.6964H17.7049H17.7134H17.7218H17.7302H17.7386H17.747H17.7554H17.7638H17.7721H17.7804H17.7887H17.797H17.8053H17.8136H17.8219H17.8301H17.8382H17.8466H17.8547H17.8629H17.8711H17.8792H17.8874H17.8956H17.9037H17.9117H17.9199H17.9279H17.936H17.944H17.9521H17.9601H17.9681H17.9761H17.9841H17.992H18H18.0079H18.0158H18.0238H18.0316H18.0395H18.0474H18.0553H18.0631H18.0709H18.0787H18.0865H18.0942H18.102H18.1098H18.1175H18.1252H18.133H18.1407H18.1484H18.156H18.1637H18.1713H18.179H18.1866H18.1943H18.2018H18.2092H18.2169H18.2244H18.232H18.2395H18.247H18.2545H18.262H18.2694H18.2769H18.2843H18.2917H18.2993H18.3066H18.314H18.3213H18.3287H18.336H18.3434H18.3507H18.358H18.3653H18.3725H18.3797H18.3871H18.3943H18.4015H18.4087H18.4159H18.4231H18.4303H18.4374H18.4446H18.4517H18.4587H18.4659H18.473H18.4801H18.4871H18.4943H18.5013H18.5083H18.5153H18.5223H18.5293H18.5363H18.5433H18.5501H18.5571H18.564H18.5709H18.5778H18.5848H18.5915H18.5984H18.6052H18.612H18.6189H18.6258H18.6324H18.6393H18.646H18.6527H18.6595H18.6663H18.6729H18.6796H18.6862H18.693H18.6996H18.7062H18.7129H18.7195H18.7261H18.7327H18.7393H18.7459H18.7524H18.759H18.7655H18.772H18.7785H18.785H18.7915H18.798H18.8044H18.8109H18.8173H18.8237H18.8301H18.8365H18.8429H18.8492H18.8556H18.862H18.8683H18.8746H18.8809H18.8872H18.8935H18.8998H18.906H18.9123H18.9185H18.9247H18.9309H18.9371H18.9432H18.9495H18.9556H18.9617H18.9679H18.974H18.9801H18.9862H18.9922H18.9984H19.0044H19.0105H19.0165H19.0225H19.0285H19.0345H19.0405H19.0465H19.0524H19.0584H19.0642H19.0703H19.0763H19.0821H19.0879H19.0938H19.0998H19.1055H19.1114H19.1172H19.123H19.1288H19.1346H19.1404H19.1463H19.1519H19.1578H19.1634H19.1691H19.1748H19.1805H19.1862H19.1919H19.1975H19.2032H19.2088H19.2144H19.2201H19.2257H19.2312H19.2368H19.2424H19.2479H19.2535H19.259H19.2645H19.27H19.2755H19.281H19.2865H19.292H19.2974H19.3028H19.3082H19.3137H19.3191H19.3245H19.3299H19.3353H19.3406H19.3459H19.3512H19.3566H19.3619H19.3672H19.3725H19.3777H19.383H19.3882H19.3935H19.3987H19.404H19.4092H19.4144H19.4196H19.4248H19.4299H19.4351H19.4402H19.4452H19.4504H19.4556H19.4608H19.4657H19.4707H19.4759H19.4809H19.486H19.491H19.496H19.501H19.506H19.511H19.516H19.5209H19.5259H19.5308H19.5357H19.5408H19.5456H19.5505H19.5552H19.5602H19.5651H19.5699H19.5748H19.5796H19.5844H19.5892H19.594H19.5988H19.6036H19.6084H19.6131H19.6179H19.6226H19.6272H19.632H19.6367H19.6414H19.6461H19.6507H19.6554H19.6601H19.6647H19.6692H19.6739H19.6785H19.6831H19.6877H19.6923H19.6968H19.7014H19.7059H19.7104H19.715H19.7195H19.724H19.7285H19.7329H19.7374H19.7419H19.7462H19.7507H19.7552H19.7596H19.764H19.7684H19.7727H19.7771H19.7815H19.7857H19.7902H19.7945H19.7988H19.8031H19.8074H19.8118H19.816H19.8202H19.8245H19.8287H19.833H19.8373H19.8414H19.8456H19.8498H19.854H19.8583H19.8624H19.8665H19.8708H19.8747H19.8789H19.883H19.8873H19.8912H19.8953H19.8994H19.9035H19.9075H19.9116H19.9156H19.9196H19.9236H19.9278H19.9316H19.9356H19.9396H19.9436H19.9475H19.9515H19.9554H19.9593H19.9632H19.9673H19.9711H19.9749H19.9788H19.9827H19.9865H19.9904H19.9943H19.9981H20.0019C21.1089 4 22 4.89787 22 6V17.9231C22 18.4754 21.5522 18.9231 21 18.9231H20.9999H20.9997H20.9996H20.9994H20.9992H20.9989H20.9985H20.9982H20.9978H20.9972H20.9968H20.9962H20.9955H20.9949H20.9943H20.9934H20.9926H20.9918H20.9909H20.99H20.989H20.988H20.987H20.9859H20.9848H20.9835H20.9822H20.981H20.9797H20.9783H20.9769H20.9755H20.974H20.9724H20.9709H20.9692H20.9676H20.9659H20.9641H20.9622H20.9605H20.9586H20.9566H20.9548H20.9527H20.9506H20.9485H20.9464H20.9443H20.9419H20.9398H20.9374H20.935H20.9326H20.9303H20.9278H20.9252H20.9226H20.92H20.9174H20.9147H20.912H20.9093H20.9064H20.9035H20.9006H20.8978H20.8947H20.8918H20.8886H20.8855H20.8824H20.8793H20.876H20.8727H20.8694H20.8661H20.8628H20.8593H20.8558H20.8523H20.8488H20.8451H20.8415H20.8377H20.8341H20.8304H20.8266H20.8227H20.8189H20.815H20.811H20.807H20.803H20.799H20.7947H20.7908H20.7865H20.7822H20.778H20.7738H20.7694H20.765H20.7606H20.7561H20.7516H20.7471H20.7425H20.7379H20.7332H20.7286H20.7239H20.7191H20.7143H20.7095H20.7046H20.6997H20.6948H20.6898H20.6847H20.6796H20.6745H20.6694H20.6643H20.659H20.6538H20.6484H20.6431H20.6378H20.6322H20.6269H20.6214H20.6159H20.6104H20.6047H20.5991H20.5935H20.5878H20.5821H20.5763H20.5705H20.5646H20.5588H20.5528H20.5469H20.5409H20.5349H20.5287H20.5228H20.5166H20.5104H20.5043H20.498H20.4917H20.4854H20.4791H20.4728H20.4662H20.4598H20.4534H20.4467H20.4403H20.4337H20.4271H20.4204H20.4137H20.407H20.4002H20.3934H20.3866H20.3798H20.3728H20.3659H20.3589H20.3519H20.3449H20.3378H20.3308H20.3236H20.3164H20.3092H20.302H20.2948H20.2874H20.2801H20.2728H20.2652H20.2579H20.2504H20.2429H20.2354H20.2278H20.2202H20.2125H20.2049H20.1973H20.1894H20.1817H20.1739H20.166H20.1582H20.1502H20.1424H20.1344H20.1264H20.1184H20.1103H20.1023H20.0941H20.086H20.0778H20.0696H20.0613H20.0531H20.0447H20.0364H20.028H20.0196H20.0113H20.0027H19.9943H19.9858H19.9772H19.9686H19.96H19.9513H19.9426H19.9339H19.9253H19.9164H19.9076H19.8988H19.8899H19.881H19.8721H19.8632H19.8542H19.8453H19.8361H19.8271H19.818H19.8087H19.7998H19.7905H19.7813H19.772H19.7628H19.7534H19.7441H19.7348H19.7254H19.7159H19.7065H19.697H19.6875H19.678H19.6684H19.6587H19.6493H19.6395H19.6299H19.6202H19.6104H19.6007H19.5909H19.581H19.5713H19.5612H19.5514H19.5415H19.5315H19.5216H19.5115H19.5015H19.4914H19.4812H19.4713H19.4611H19.4509H19.4407H19.4305H19.4203H19.4099H19.3996H19.3892H19.3789H19.3685H19.3581H19.3477H19.3372H19.3267H19.3162H19.3056H19.2951H19.2845H19.2738H19.2633H19.2525H19.2417H19.2311H19.2203H19.2096H19.1987H19.1879H19.1771H19.1662H19.1553H19.1442H19.1334H19.1224H19.1114H19.1004H19.0893H19.0782H19.0671H19.056H19.0448H19.0337H19.0225H19.0113H19H18.9887H18.9774H18.9661H18.9547H18.9434H18.932H18.9205H18.9091H18.8976H18.8861H18.8746H18.8631H18.8515H18.84H18.8282H18.8167H18.8051H18.7934H18.7817H18.77H18.7582H18.7464H18.7348H18.7227H18.711H18.6991H18.6873H18.6754H18.6634H18.6515H18.6395H18.6275H18.6155H18.6035H18.5914H18.5793H18.5673H18.5551H18.543H18.5307H18.5186H18.5064H18.4943H18.4819H18.4696H18.4574H18.445H18.4328H18.4202H18.408H18.3956H18.3831H18.3707H18.3583H18.3458H18.3332H18.3207H18.3083H18.2956H18.283H18.2704H18.2577H18.2452H18.2325H18.2197H18.2071H18.1944H18.1816H18.1689H18.1561H18.1433H18.1305H18.1176H18.1047H18.0919H18.079H18.0661H18.0531H18.0403H18.0273H18.0143H18.0012H17.9882H17.9751H17.9621H17.949H17.9359H17.9228H17.9096H17.8964H17.8833H17.8701H17.8569H17.8436H17.8304H17.8171H17.8037H17.7905H17.7773H17.7639H17.7505H17.7371H17.7238H17.7103H17.6969H17.6835H17.67H17.6565H17.643H17.6295H17.616H17.6025H17.5889H17.5753H17.5617H17.5481H17.5345H17.5209H17.5072H17.4935H17.4797H17.4661H17.4524H17.4387H17.4249H17.4111H17.3972H17.3835H17.3698H17.3559H17.342H17.3282H17.3142H17.3004H17.2865H17.2726H17.2586H17.2447H17.2307H17.2167H17.2027H17.1888H17.1748H17.1606H17.1466H17.1325H17.1184H17.1042H17.0902H17.0761H17.0619H17.0478H17.0336H17.0194H17.0052H16.991H16.9767H16.9625H16.9483H16.934H16.9197H16.9054H16.8911H16.8767H16.8625H16.8481H16.8337H16.8194H16.805H16.7906H16.7763H16.7617H16.7473H16.7329H16.7184H16.7039H16.6894H16.6749H16.6604H16.6459H16.6314H16.6168H16.6022H16.5878H16.5731H16.5585H16.5439H16.5292H16.5146H16.5C15.3883 18.9231 14.3728 19.1637 13.627 19.4107C13.2567 19.5335 12.9596 19.6556 12.7586 19.7451C12.6583 19.7897 12.5824 19.8262 12.534 19.8502C12.5097 19.8622 12.4924 19.871 12.4823 19.8763L12.4741 19.8805L11.5265 19.8808ZM13 8V17.5116C13.8791 17.2205 15.1129 16.9231 16.5 16.9231H16.5146H16.5292H16.5439H16.5585H16.5731H16.5878H16.6022H16.6168H16.6314H16.6459H16.6604H16.6749H16.6894H16.7039H16.7184H16.7329H16.7473H16.7617H16.7763H16.7906H16.805H16.8194H16.8337H16.8481H16.8625H16.8767H16.8911H16.9054H16.9197H16.934H16.9483H16.9625H16.9767H16.991H17.0052H17.0194H17.0336H17.0478H17.0619H17.0761H17.0902H17.1042H17.1184H17.1325H17.1466H17.1606H17.1748H17.1888H17.2027H17.2167H17.2307H17.2447H17.2586H17.2726H17.2865H17.3004H17.3142H17.3282H17.342H17.3559H17.3698H17.3835H17.3972H17.4111H17.4249H17.4387H17.4524H17.4661H17.4797H17.4935H17.5072H17.5209H17.5345H17.5481H17.5617H17.5753H17.5889H17.6025H17.616H17.6295H17.643H17.6565H17.67H17.6835H17.6969H17.7103H17.7238H17.7371H17.7505H17.7639H17.7773H17.7905H17.8037H17.8171H17.8304H17.8436H17.8569H17.8701H17.8833H17.8964H17.9096H17.9228H17.9359H17.949H17.9621H17.9751H17.9882H18.0012H18.0143H18.0273H18.0403H18.0531H18.0661H18.079H18.0919H18.1047H18.1176H18.1305H18.1433H18.1561H18.1689H18.1816H18.1944H18.2071H18.2197H18.2325H18.2452H18.2577H18.2704H18.283H18.2956H18.3083H18.3207H18.3332H18.3458H18.3583H18.3707H18.3831H18.3956H18.408H18.4202H18.4328H18.445H18.4574H18.4696H18.4819H18.4943H18.5064H18.5186H18.5307H18.543H18.5551H18.5673H18.5793H18.5914H18.6035H18.6155H18.6275H18.6395H18.6515H18.6634H18.6754H18.6873H18.6991H18.711H18.7227H18.7348H18.7464H18.7582H18.77H18.7817H18.7934H18.8051H18.8167H18.8282H18.84H18.8515H18.8631H18.8746H18.8861H18.8976H18.9091H18.9205H18.932H18.9434H18.9547H18.9661H18.9774H18.9887H19H19.0113H19.0225H19.0337H19.0448H19.056H19.0671H19.0782H19.0893H19.1004H19.1114H19.1224H19.1334H19.1442H19.1553H19.1662H19.1771H19.1879H19.1987H19.2096H19.2203H19.2311H19.2417H19.2525H19.2633H19.2738H19.2845H19.2951H19.3056H19.3162H19.3267H19.3372H19.3477H19.3581H19.3685H19.3789H19.3892H19.3996H19.4099H19.4203H19.4305H19.4407H19.4509H19.4611H19.4713H19.4812H19.4914H19.5015H19.5115H19.5216H19.5315H19.5415H19.5514H19.5612H19.5713H19.581H19.5909H19.6007H19.6104H19.6202H19.6299H19.6395H19.6493H19.6587H19.6684H19.678H19.6875H19.697H19.7065H19.7159H19.7254H19.7348H19.7441H19.7534H19.7628H19.772H19.7813H19.7905H19.7998H19.8087H19.818H19.8271H19.8361H19.8453H19.8542H19.8632H19.8721H19.881H19.8899H19.8988H19.9076H19.9164H19.9253H19.9339H19.9426H19.9513H19.96H19.9686H19.9772H19.9858H19.9943H20V6H19.9981H19.9943H19.9904H19.9865H19.9827H19.9788H19.9749H19.9711H19.9673H19.9632H19.9593H19.9554H19.9515H19.9475H19.9436H19.9396H19.9356H19.9316H19.9278H19.9236H19.9196H19.9156H19.9116H19.9075H19.9035H19.8994H19.8953H19.8912H19.8873H19.883H19.8789H19.8747H19.8708H19.8665H19.8624H19.8583H19.854H19.8498H19.8456H19.8414H19.8373H19.833H19.8287H19.8245H19.8202H19.816H19.8118H19.8074H19.8031H19.7988H19.7945H19.7902H19.7857H19.7815H19.7771H19.7727H19.7684H19.764H19.7596H19.7552H19.7507H19.7462H19.7419H19.7374H19.7329H19.7285H19.724H19.7195H19.715H19.7104H19.7059H19.7014H19.6968H19.6923H19.6877H19.6831H19.6785H19.6739H19.6692H19.6647H19.6601H19.6554H19.6507H19.6461H19.6414H19.6367H19.632H19.6272H19.6226H19.6179H19.6131H19.6084H19.6036H19.5988H19.594H19.5892H19.5844H19.5796H19.5748H19.5699H19.5651H19.5602H19.5552H19.5505H19.5456H19.5408H19.5357H19.5308H19.5259H19.5209H19.516H19.511H19.506H19.501H19.496H19.491H19.486H19.4809H19.4759H19.4707H19.4657H19.4608H19.4556H19.4504H19.4452H19.4402H19.4351H19.4299H19.4248H19.4196H19.4144H19.4092H19.404H19.3987H19.3935H19.3882H19.383H19.3777H19.3725H19.3672H19.3619H19.3566H19.3512H19.3459H19.3406H19.3353H19.3299H19.3245H19.3191H19.3137H19.3082H19.3028H19.2974H19.292H19.2865H19.281H19.2755H19.27H19.2645H19.259H19.2535H19.2479H19.2424H19.2368H19.2312H19.2257H19.2201H19.2144H19.2088H19.2032H19.1975H19.1919H19.1862H19.1805H19.1748H19.1691H19.1634H19.1578H19.1519H19.1463H19.1404H19.1346H19.1288H19.123H19.1172H19.1114H19.1055H19.0998H19.0938H19.0879H19.0821H19.0763H19.0703H19.0642H19.0584H19.0524H19.0465H19.0405H19.0345H19.0285H19.0225H19.0165H19.0105H19.0044H18.9984H18.9922H18.9862H18.9801H18.974H18.9679H18.9617H18.9556H18.9495H18.9432H18.9371H18.9309H18.9247H18.9185H18.9123H18.906H18.8998H18.8935H18.8872H18.8809H18.8746H18.8683H18.862H18.8556H18.8492H18.8429H18.8365H18.8301H18.8237H18.8173H18.8109H18.8044H18.798H18.7915H18.785H18.7785H18.772H18.7655H18.759H18.7524H18.7459H18.7393H18.7327H18.7261H18.7195H18.7129H18.7062H18.6996H18.693H18.6862H18.6796H18.6729H18.6663H18.6595H18.6527H18.646H18.6393H18.6324H18.6258H18.6189H18.612H18.6052H18.5984H18.5915H18.5848H18.5778H18.5709H18.564H18.5571H18.5501H18.5433H18.5363H18.5293H18.5223H18.5153H18.5083H18.5013H18.4943H18.4871H18.4801H18.473H18.4659H18.4587H18.4517H18.4446H18.4374H18.4303H18.4231H18.4159H18.4087H18.4015H18.3943H18.3871H18.3797H18.3725H18.3653H18.358H18.3507H18.3434H18.336H18.3287H18.3213H18.314H18.3066H18.2993H18.2917H18.2843H18.2769H18.2694H18.262H18.2545H18.247H18.2395H18.232H18.2244H18.2169H18.2092H18.2018H18.1943H18.1866H18.179H18.1713H18.1637H18.156H18.1484H18.1407H18.133H18.1252H18.1175H18.1098H18.102H18.0942H18.0865H18.0787H18.0709H18.0631H18.0553H18.0474H18.0395H18.0316H18.0238H18.0158H18.0079H18H17.992H17.9841H17.9761H17.9681H17.9601H17.9521H17.944H17.936H17.9279H17.9199H17.9117H17.9037H17.8956H17.8874H17.8792H17.8711H17.8629H17.8547H17.8466H17.8382H17.8301H17.8219H17.8136H17.8053H17.797H17.7887H17.7804H17.7721H17.7638H17.7554H17.747H17.7386H17.7302H17.7218H17.7134H17.7049H17.6964H17.688H17.6795H17.671H17.6625H17.6539H17.6454H17.6368H17.6282H17.6196H17.611H17.6024H17.5938H17.5851H17.5765H17.5677H17.5591H17.5504H17.5418H17.5329H17.5243H17.5154H17.5066H17.4978H17.489H17.4803H17.4712H17.4625H17.4536H17.4447H17.4358H17.4269H17.418H17.409H17.4001H17.3911H17.3821H17.3731H17.3641H17.355H17.346H17.3369H17.3279H17.3188H17.3096H17.3005H17.2914H17.2822H17.2731H17.2639H17.2548H17.2455H17.2363H17.227H17.2178H17.2084H17.1992H17.1898H17.1805H17.1713H17.1618H17.1525H17.1431H17.1338H17.1242H17.1149H17.1054H17.0959H17.0865H17.077H17.0675H17.058H17.0484H17.0389H17.0293H17.0198H17.0101H17.0005H16.9909H16.9812H16.9716H16.9619H16.9522H16.9425H16.9328H16.9231H16.9133H16.9036H16.8937H16.884H16.8742H16.8643H16.8545H16.8446H16.8347H16.8249H16.8149H16.805H16.7951H16.7851H16.7752H16.7652H16.7553H16.7452H16.7351H16.7251H16.715H16.7049H16.6948H16.6847H16.6746H16.6645H16.6543H16.6441H16.6339H16.6238H16.6135H16.6033H16.593H16.5827H16.5725H16.5623H16.5518H16.5415H16.5311H16.5208H16.5104H16.5H16.4967H16.4932H16.49H16.4868H16.4833H16.48H16.4767H16.4734H16.4701H16.4667H16.4634H16.4601H16.4568H16.4535H16.4502H16.4469H16.4435H16.4403H16.4369H16.4336H16.4302H16.427H16.4237H16.4204H16.4171H16.4139H16.4106H16.4072H16.404H16.4008H16.3974H16.3941H16.3909H16.3876H16.3842H16.381H16.3778H16.3745H16.3712H16.3679H16.3648H16.3614H16.3581H16.3549H16.3516H16.3482H16.3451H16.3418H16.3386H16.3352H16.3321H16.3288H16.3256H16.3222H16.3191H16.3157H16.3126H16.3093H16.3061H16.3029H16.2996H16.2964H16.2932H16.2899H16.2868H16.2835H16.2803H16.277H16.2737H16.2706H16.2674H16.2642H16.2609H16.2578H16.2545H16.2513H16.2481H16.2449H16.2418H16.2385H16.2352H16.2321H16.2289H16.2257H16.2225H16.2192H16.2161H16.2129H16.2097H16.2065H16.2033H16.2001H16.1969H16.1937H16.1906H16.1874H16.1842H16.1811H16.1779H16.1747H16.1715H16.1684H16.1653H16.162H16.1589H16.1558H16.1525H16.1494H16.1463H16.1431H16.1399H16.1367H16.1336H16.1305H16.1272H16.1243H16.121H16.1179H16.1147H16.1116H16.1084H16.1052H16.1023H16.099H16.0959H16.0928H16.0896H16.0865H16.0834H16.0803H16.0771H16.074H16.0709H16.0677H16.0647H16.0616H16.0584H16.0552H16.0523H16.0491H16.046H16.0429H16.0398H16.0367H16.0336H16.0305H16.0274H16.0243H16.0213H16.0181H16.015H16.0119H16.0087H16.0058H16.0027H15.9996H15.9965H15.9934H15.9902H15.9873H15.9842H15.9811H15.978H15.975H15.9719H15.9688H15.9657H15.9628H15.9596H15.9566H15.9535H15.9505H15.9474H15.9444H15.9412H15.9383H15.9353H15.9321H15.9291H15.9261H15.923H15.92H15.9169H15.9139H15.9109H15.9077H15.9048H15.9017H15.8988H15.8958H15.8927H15.8896H15.8866H15.8836H15.8806H15.8775H15.8745H15.8715H15.8685H15.8655H15.8625H15.8595H15.8564H15.8534H15.8504H15.8474H15.8444H15.8414H15.8384H15.8354H15.8324H15.8294H15.8264H15.8234H15.8205H15.8175H15.8145H15.8115H15.8085H15.8055H15.8025H15.7996H15.7966H15.7936H15.7906H15.7878H15.7847H15.7818H15.7787H15.7758H15.7727H15.7699H15.7669H15.7639H15.761H15.758H15.7551H15.7521H15.7491H15.7462H15.7433H15.7402H15.7373H15.7344H15.7315H15.7285H15.7256H15.7226H15.7197H15.7168H15.7137H15.7109H15.708H15.705H15.7021H15.6993H15.6962H15.6933H15.6904H15.6875H15.6846H15.6816H15.6787H15.6758H15.6729H15.67H15.6671H15.6643H15.6612H15.6584H15.6555H15.6526H15.6497H15.6468H15.6439H15.641H15.6381H15.6353H15.6322H15.6294H15.6265H15.6236H15.6207H15.6178H15.615H15.6121H15.6092H15.6063H15.6034H15.6006H15.5977H15.5948H15.592H15.5891H15.5863H15.5834H15.5805H15.5776H15.5748H15.5719H15.5691H15.5662H15.5633H15.5605H15.5576H15.5547H15.5519H15.5491H15.5462H15.5434H15.5406H15.5378H15.5349H15.532H15.5292H15.5264H15.5235H15.5207H15.5179H15.515H15.5123H15.5094H15.5066H15.5038H15.5009H15.4981H15.4952H15.4925H15.4896H15.4868H15.484H15.4812H15.4784H15.4756H15.4728H15.47H15.4672H15.4644H15.4616H15.4588H15.456H15.4532H15.4504H15.4476H15.4448H15.442H15.4392H15.4364H15.4337H15.4309H15.4281H15.4253H15.4225H15.4197H15.417H15.4142H15.4114H15.4088H15.4059H15.4031H15.4004H15.3976H15.3948H15.3921H15.3893H15.3865H15.3837H15.381H15.3782H15.3755H15.3728H15.37H15.3672H15.3645H15.3617H15.359H15.3563H15.3535H15.3508H15.3481H15.3452H15.3426H15.3399H15.3371H15.3344H15.3317H15.3289H15.3263H15.3235H15.3207H15.318H15.3152H15.3126H15.3099H15.3072H15.3044H15.3018H15.299H15.2963H15.2936H15.2909H15.2882H15.2855H15.2827H15.2801H15.2774H15.2747H15.272H15.2693H15.2666H15.2639H15.2613H15.2585H15.2557H15.2531H15.2505H15.2477H15.2451H15.2424H15.2397H15.237H15.2344H15.2317H15.229H15.2264H15.2238H15.221H15.2183H15.2158H15.213H15.2104H15.2078H15.205H15.2024H15.1998H15.1971H15.1944H15.1918H15.1891H15.1865H15.1837H15.1813H15.1785H15.1759H15.1732H15.1706H15.1679H15.1652H15.1628H15.16H15.1574H15.1547H15.1521H15.1495H15.1469H15.1442H15.1416H15.139H15.1364H15.1337H15.1311H15.1285H15.1259H15.1233H15.1208H15.1181H15.1155H15.1128H15.1103H15.1076H15.105H15.1024H15.0998H15.0973H15.0946H15.092H15.0894H15.0868H15.0842H15.0817H15.0791H15.0765H15.0739H15.0712H15.0687H15.0661H15.0636H15.061H15.0584H15.0558H15.0533H15.0508H15.0481H15.0455H15.043H15.0404H15.0377H15.0352H15.0327H15.0301H15.0276H15.025H15.0224H15.0199H15.0173H15.0148H15.0122H15.0097H15.0071H15.0046H15.002H14.9995C13.8951 6 13 6.89521 13 8ZM12.3966 19.918C12.1188 20.0381 11.7988 20.0266 11.528 19.8816C11.5275 19.8813 11.527 19.8811 11.5265 19.8808" fill="#92999E"/>
</svg>
