<svg width="24" height="24" viewBox="0 0 24 24" fill="none" xmlns="http://www.w3.org/2000/svg">
<path fill-rule="evenodd" clip-rule="evenodd" d="M16.6585 6.74743C17.0741 7.1111 17.1163 7.74287 16.7526 8.1585C16.3889 8.57414 15.7571 8.61625 15.3415 8.25258L13 6.20377V16.0001C13 16.5523 12.5523 17.0001 12 17.0001C11.4477 17.0001 11 16.5523 11 16.0001V6.20377L8.6585 8.25258C8.24286 8.61625 7.6111 8.57414 7.24742 8.1585C6.88374 7.74287 6.92586 7.1111 7.3415 6.74743L11.3415 3.24742C11.7185 2.91753 12.2815 2.91753 12.6585 3.24742L16.6585 6.74743ZM4 16.0001C4 15.4477 3.55229 15.0001 3 15.0001C2.44771 15.0001 2 15.4477 2 16.0001V19.0001C2 20.1046 2.89543 21.0001 4 21.0001H20C21.1046 21.0001 22 20.1046 22 19.0001V16.0001C22 15.4477 21.5522 15.0001 21 15.0001C20.4477 15.0001 20 15.4477 20 16.0001V19.0001H4V16.0001Z" fill="#92999E"/>
</svg>
