<svg width="24" height="24" viewBox="0 0 24 24" fill="none" xmlns="http://www.w3.org/2000/svg">
<path fill-rule="evenodd" clip-rule="evenodd" d="M8 5.01778C8 4.46221 8.44773 4.01185 9 4.01185H15C15.5523 4.01185 16 4.46221 16 5.01778V19.4803C16 19.9158 15.4873 20.1454 15.1655 19.8541L12.669 17.5939C12.2887 17.2496 11.7114 17.2496 11.331 17.5939L8.83449 19.8541C8.51273 20.1454 8 19.9158 8 19.4803V5.01778ZM9 2H15C16.6569 2 18 3.3511 18 5.01778V19.4803C18 21.6575 15.4364 22.806 13.8276 21.3495L12 19.6949L10.1724 21.3495C8.5636 22.806 6 21.6575 6 19.4803V5.01778C6 3.3511 7.34315 2 9 2Z" fill="#202D38"/>
</svg>
