<svg width="24" height="24" viewBox="0 0 24 24" fill="none" xmlns="http://www.w3.org/2000/svg">
<path fill-rule="evenodd" clip-rule="evenodd" d="M16 5H16.2597H17H17.0018H20C20.5523 5 21 5.44771 21 6C21 6.55228 20.5523 7 20 7H19C19 7.051 18.998 7.10216 18.9941 7.15339L18.0651 19.2301C17.9449 20.7931 16.6416 22 15.074 22H8.92603C7.35842 22 6.0551 20.7931 5.93487 19.2301L5.00589 7.15339C5.00195 7.10216 5 7.051 4.99999 7H4C3.44772 7 3 6.55229 3 6C3 5.44772 3.44772 5 4 5H6.99883H7H7.34328H8C8 3.34315 9.34314 2 11 2H13C14.6569 2 16 3.34315 16 5ZM14.9941 7H17L16.8462 9L16.071 19.0767C16.0309 19.5977 15.5965 20 15.074 20H13V7H14H14.9941ZM11 7H10H9.00591H7L7.15385 9L7.92898 19.0767C7.96905 19.5977 8.4035 20 8.92603 20H11V7ZM11 5H10C10 4.44772 10.4477 4 11 4H13C13.5523 4 14 4.44772 14 5H13H12H11Z" fill="#202D38"/>
</svg>
