<svg width="24" height="24" viewBox="0 0 24 24" fill="none" xmlns="http://www.w3.org/2000/svg">
<path fill-rule="evenodd" clip-rule="evenodd" d="M17.6923 11.9999C17.6923 10.7254 18.7255 9.69223 20 9.69223C21.2744 9.69223 22.3077 10.7254 22.3077 11.9999C22.3077 13.2744 21.2744 14.3076 20 14.3076C18.7255 14.3076 17.6923 13.2744 17.6923 11.9999ZM9.99999 11.9999C9.99999 10.7254 11.0332 9.69223 12.3077 9.69223C13.5822 9.69223 14.6154 10.7254 14.6154 11.9999C14.6154 13.2744 13.5822 14.3076 12.3077 14.3076C11.0332 14.3076 9.99999 13.2744 9.99999 11.9999ZM4.61537 9.69223C3.34087 9.69223 2.30768 10.7254 2.30768 11.9999C2.30768 13.2744 3.34087 14.3076 4.61537 14.3076C5.88988 14.3076 6.92306 13.2744 6.92306 11.9999C6.92306 10.7254 5.88988 9.69223 4.61537 9.69223Z" fill="#202D38"/>
</svg>
