<svg width="24" height="24" viewBox="0 0 24 24" fill="none" xmlns="http://www.w3.org/2000/svg">
<path fill-rule="evenodd" clip-rule="evenodd" d="M2 12C2 17.5229 6.47715 22 12 22C17.5229 22 22 17.5229 22 12C22 6.47715 17.5229 2 12 2C6.47715 2 2 6.47715 2 12ZM4 12C4 7.58172 7.58172 4 12 4C16.4183 4 20 7.58172 20 12C20 16.4183 16.4183 20 12 20C7.58172 20 4 16.4183 4 12ZM10.5281 9.11833C10.8533 8.94431 11.2478 8.96338 11.5547 9.16795L14.5548 11.168C14.8329 11.3534 15 11.6657 15 12C15 12.3343 14.8329 12.6466 14.5548 12.832L11.5547 14.832C11.2478 15.0366 10.8533 15.0557 10.5281 14.8816C10.203 14.7076 10 14.3688 10 14V10C10 9.6312 10.203 9.29235 10.5281 9.11833Z" fill="#202D38"/>
</svg>
