<svg width="24" height="24" viewBox="0 0 24 24" fill="none" xmlns="http://www.w3.org/2000/svg">
<path fill-rule="evenodd" clip-rule="evenodd" d="M6.45962 16.7883L7.12742 16.9429C7.76455 17.0902 8.38475 16.6859 8.51267 16.0398C8.6406 15.3936 8.2278 14.7504 7.59068 14.603L4.30767 13.8434C3.71985 13.7074 3.13728 14.0414 2.95506 14.6188L2.05597 17.468C1.85848 18.0939 2.20024 18.778 2.81935 18.9959C3.43845 19.2137 4.10044 18.883 4.29794 18.257L4.3965 17.9446C5.77258 19.8148 7.61861 20.9616 9.11715 21.4889C10.9801 22.1446 13.7231 22.3429 16.369 21.0208C19.023 19.6948 20.5288 17.3046 21.1199 15.4316C21.3174 14.8057 20.9757 14.1217 20.3566 13.9038C19.7375 13.6859 19.0755 14.0167 18.8779 14.6426C18.4367 16.0408 17.2823 17.8646 15.2894 18.8603C13.2884 19.8601 11.2051 19.7055 9.83236 19.2225C8.78056 18.8522 7.47647 18.0548 6.45962 16.7883ZM15.6247 9.39707C14.9875 9.24967 14.5747 8.60637 14.7026 7.96026C14.8305 7.31413 15.4508 6.90985 16.0878 7.05725L16.7557 7.21176C15.7388 5.94522 14.4348 5.14773 13.383 4.77761C12.0102 4.29455 9.9269 4.13991 7.92595 5.13973C5.93311 6.1355 4.77858 7.95927 4.33738 9.35742C4.13987 9.98333 3.4779 10.3141 2.85879 10.0962C2.23969 9.87837 1.89791 9.19437 2.09542 8.56849C2.68646 6.69543 4.19245 4.30525 6.84637 2.97916C9.49218 1.65712 12.2352 1.85546 14.0982 2.51104C15.5968 3.03837 17.4427 4.18518 18.8189 6.05536L18.9174 5.74301C19.1149 5.11712 19.7769 4.78635 20.396 5.00421C21.0151 5.22206 21.3568 5.90606 21.1594 6.53196L20.2603 9.3812C20.078 9.95867 19.4954 10.2927 18.9077 10.1566L15.6247 9.39707Z" fill="#202D38"/>
</svg>
