<svg width="24" height="24" viewBox="0 0 24 24" fill="none" xmlns="http://www.w3.org/2000/svg">
<path fill-rule="evenodd" clip-rule="evenodd" d="M4.53977 11.9307C4.48267 11.8426 4.43157 11.7604 4.38635 11.6853C4.43678 11.6062 4.49398 11.5192 4.55802 11.4255C4.88044 10.9536 5.36954 10.3227 6.03018 9.69349C7.34959 8.4369 9.31123 7.22221 12 7.22221C14.6888 7.22221 16.6504 8.4369 17.9699 9.69349C18.6305 10.3227 19.1195 10.9536 19.442 11.4255C19.506 11.5192 19.5633 11.6063 19.6136 11.6853C19.5684 11.7604 19.5174 11.8426 19.4603 11.9307C19.1576 12.3979 18.6929 13.0236 18.0509 13.6478C16.7741 14.8891 14.8161 16.1111 12 16.1111C9.18391 16.1111 7.22591 14.8891 5.94914 13.6478C5.30709 13.0236 4.84232 12.3979 4.53977 11.9307ZM21.899 12.1296C21.8993 12.1291 21.8994 12.1286 20.8889 11.6667L21.8994 12.1286C22.0391 11.8229 22.033 11.4704 21.8828 11.1698L20.8889 11.6667C21.8828 11.1698 21.8825 11.1693 21.8823 11.1688L21.8818 11.1678L21.8805 11.1653L21.8771 11.1588L21.8675 11.1399C21.8595 11.1246 21.8488 11.1042 21.8353 11.0789C21.8081 11.0283 21.7695 10.9582 21.7194 10.8715C21.6191 10.6982 21.472 10.4575 21.2768 10.1717C20.8874 9.60192 20.3001 8.844 19.5024 8.08429C17.9051 6.5631 15.4224 5 12 5C8.57767 5 6.09487 6.5631 4.4976 8.08429C3.69991 8.844 3.11262 9.60192 2.72324 10.1717C2.528 10.4575 2.38093 10.6982 2.28066 10.8715C2.23049 10.9582 2.19191 11.0283 2.16477 11.0789C2.15119 11.1042 2.14046 11.1246 2.13256 11.1399L2.12282 11.1588L2.11954 11.1653L2.11829 11.1678L2.11776 11.1688C2.11753 11.1693 2.1173 11.1698 3.11111 11.6667L2.1173 11.1698C1.96698 11.4704 1.96084 11.8229 2.10058 12.1286L3.11111 11.6667C2.10058 12.1286 2.10081 12.1291 2.10104 12.1296L2.10156 12.1307L2.10277 12.1334L2.10593 12.1402L2.11517 12.1598C2.12264 12.1755 2.13273 12.1964 2.14549 12.2222C2.17099 12.2737 2.2072 12.3447 2.25447 12.4324C2.34891 12.6077 2.48798 12.8507 2.67453 13.1387C3.04657 13.7132 3.61355 14.4764 4.40008 15.2411C5.98045 16.7776 8.46689 18.3334 12 18.3334C15.5331 18.3334 18.0195 16.7776 19.5999 15.2411C20.3865 14.4764 20.9534 13.7132 21.3255 13.1387C21.512 12.8507 21.6511 12.6077 21.7455 12.4324C21.7928 12.3447 21.829 12.2737 21.8545 12.2222C21.8673 12.1964 21.8774 12.1755 21.8849 12.1598L21.8941 12.1402L21.8973 12.1334L21.8985 12.1307L21.899 12.1296ZM12 10.5556C11.3864 10.5556 10.8889 11.053 10.8889 11.6667C10.8889 12.2803 11.3864 12.7778 12 12.7778C12.6137 12.7778 13.1111 12.2803 13.1111 11.6667C13.1111 11.053 12.6137 10.5556 12 10.5556ZM15.3334 11.6667C15.3334 13.5076 13.841 15 12 15C10.1591 15 8.66667 13.5076 8.66667 11.6667C8.66667 9.82572 10.1591 8.33333 12 8.33333C13.841 8.33333 15.3334 9.82572 15.3334 11.6667Z" fill="#202D38"/>
</svg>
