<svg width="24" height="24" viewBox="0 0 24 24" fill="none" xmlns="http://www.w3.org/2000/svg">
<path fill-rule="evenodd" clip-rule="evenodd" d="M13.8296 5.3771C13.2527 5.27744 12.643 5.2223 12.0002 5.2223C8.57773 5.2223 6.09483 6.78545 4.49753 8.30669C3.69981 9.06642 3.1125 9.82436 2.72311 10.3942C2.52786 10.6799 2.38079 10.9207 2.28052 11.094C2.23034 11.1807 2.19176 11.2508 2.16462 11.3014C2.15104 11.3267 2.14031 11.3471 2.13241 11.3624L2.12267 11.3813L2.11939 11.3878L2.11814 11.3903L2.11761 11.3913C2.11761 11.3913 2.11715 11.3923 3.11099 11.8892L2.11761 11.3913C1.96729 11.692 1.96068 12.0454 2.10043 12.3511L3.11099 11.8892C2.10043 12.3511 2.10043 12.3511 2.10043 12.3511L2.10141 12.3533L2.10262 12.3559L2.10578 12.3627L2.11502 12.3823C2.12249 12.398 2.13258 12.4189 2.14534 12.4447C2.17084 12.4962 2.20705 12.5672 2.25432 12.6549C2.34877 12.8302 2.48784 13.0732 2.67439 13.3613C2.99278 13.8529 3.45392 14.4828 4.07323 15.1335L5.64522 13.5615C5.15784 13.0436 4.79224 12.5432 4.53969 12.1533C4.48259 12.0651 4.43149 11.9829 4.38627 11.9078C4.43671 11.8288 4.49391 11.7417 4.55793 11.648C4.88038 11.1761 5.36949 10.5451 6.03015 9.91593C7.3098 8.69721 9.19354 7.51791 11.7588 7.44787L13.8296 5.3771ZM3.94572 18.3723C4.00691 18.3318 4.06497 18.2845 4.11887 18.2306L19.1656 3.18383C19.597 2.89821 20.1839 2.94542 20.5639 3.32545C20.9979 3.75938 20.9979 4.46291 20.5639 4.89685L18.2196 7.24114C18.6974 7.5845 19.1249 7.94676 19.5028 8.30669C20.3005 9.06642 20.8879 9.82436 21.2773 10.3942C21.4725 10.6799 21.6195 10.9207 21.7199 11.094C21.77 11.1807 21.8086 11.2508 21.8358 11.3014C21.8493 11.3267 21.86 11.3471 21.8679 11.3624L21.8776 11.3813L21.881 11.3878L21.8823 11.3903L21.8828 11.3913C21.8828 11.3913 21.8831 11.3923 20.8894 11.8892C21.8999 12.3511 21.8995 12.3521 21.8995 12.3521L21.8989 12.3533L21.8978 12.3559L21.8945 12.3627L21.8853 12.3823L21.8696 12.4149L21.855 12.4447C21.8295 12.4962 21.7933 12.5672 21.746 12.6549C21.6515 12.8302 21.5125 13.0732 21.3259 13.3613C20.9539 13.9358 20.3869 14.699 19.6004 15.4638C18.0199 17.0003 15.5334 18.5561 12.0002 18.5561C10.3634 18.5561 8.95124 18.2221 7.74974 17.711L5.00784 20.4529C4.57391 20.8869 3.87037 20.8869 3.43644 20.4529C3.00251 20.019 3.00251 19.3155 3.43644 18.8815L3.94572 18.3723ZM20.8894 11.8892L21.8995 12.3521C22.0393 12.0464 22.033 11.692 21.8828 11.3913L20.8894 11.8892ZM12.0002 15.2226C11.4855 15.2226 10.9982 15.106 10.563 14.8978L9.48373 15.977C10.2331 16.2004 11.0698 16.3338 12.0002 16.3338C14.8164 16.3338 16.7744 15.1118 18.0513 13.8704C18.6933 13.2461 19.1581 12.6205 19.4606 12.1533C19.5178 12.0651 19.5689 11.9829 19.614 11.9078C19.5636 11.8288 19.5064 11.7417 19.4424 11.648C19.12 11.1761 18.6309 10.5451 17.9701 9.91593C17.5784 9.54276 17.1299 9.17327 16.6225 8.83821L15.0088 10.452C15.217 10.8872 15.3336 11.3746 15.3336 11.8892C15.3336 13.7302 13.8412 15.2226 12.0002 15.2226Z" fill="#202D38"/>
</svg>
